G75*
%MOIN*%
%OFA0B0*%
%FSLAX25Y25*%
%IPPOS*%
%LPD*%
%AMOC8*
5,1,8,0,0,1.08239X$1,22.5*
%
%ADD10C,0.00000*%
%ADD11C,0.00600*%
%ADD12C,0.01000*%
%ADD13C,0.00400*%
%ADD14C,0.00500*%
D10*
X0004567Y0009300D02*
X0004567Y0229261D01*
X0004569Y0229401D01*
X0004575Y0229541D01*
X0004585Y0229681D01*
X0004598Y0229821D01*
X0004616Y0229960D01*
X0004638Y0230099D01*
X0004663Y0230236D01*
X0004692Y0230374D01*
X0004725Y0230510D01*
X0004762Y0230645D01*
X0004803Y0230779D01*
X0004848Y0230912D01*
X0004896Y0231044D01*
X0004948Y0231174D01*
X0005003Y0231303D01*
X0005062Y0231430D01*
X0005125Y0231556D01*
X0005191Y0231680D01*
X0005260Y0231801D01*
X0005333Y0231921D01*
X0005410Y0232039D01*
X0005489Y0232154D01*
X0005572Y0232268D01*
X0005658Y0232378D01*
X0005747Y0232487D01*
X0005839Y0232593D01*
X0005934Y0232696D01*
X0006031Y0232797D01*
X0006132Y0232894D01*
X0006235Y0232989D01*
X0006341Y0233081D01*
X0006450Y0233170D01*
X0006560Y0233256D01*
X0006674Y0233339D01*
X0006789Y0233418D01*
X0006907Y0233495D01*
X0007027Y0233568D01*
X0007148Y0233637D01*
X0007272Y0233703D01*
X0007398Y0233766D01*
X0007525Y0233825D01*
X0007654Y0233880D01*
X0007784Y0233932D01*
X0007916Y0233980D01*
X0008049Y0234025D01*
X0008183Y0234066D01*
X0008318Y0234103D01*
X0008454Y0234136D01*
X0008592Y0234165D01*
X0008729Y0234190D01*
X0008868Y0234212D01*
X0009007Y0234230D01*
X0009147Y0234243D01*
X0009287Y0234253D01*
X0009427Y0234259D01*
X0009567Y0234261D01*
X0104517Y0234261D01*
X0104657Y0234259D01*
X0104797Y0234253D01*
X0104937Y0234243D01*
X0105077Y0234230D01*
X0105216Y0234212D01*
X0105355Y0234190D01*
X0105492Y0234165D01*
X0105630Y0234136D01*
X0105766Y0234103D01*
X0105901Y0234066D01*
X0106035Y0234025D01*
X0106168Y0233980D01*
X0106300Y0233932D01*
X0106430Y0233880D01*
X0106559Y0233825D01*
X0106686Y0233766D01*
X0106812Y0233703D01*
X0106936Y0233637D01*
X0107057Y0233568D01*
X0107177Y0233495D01*
X0107295Y0233418D01*
X0107410Y0233339D01*
X0107524Y0233256D01*
X0107634Y0233170D01*
X0107743Y0233081D01*
X0107849Y0232989D01*
X0107952Y0232894D01*
X0108053Y0232797D01*
X0108150Y0232696D01*
X0108245Y0232593D01*
X0108337Y0232487D01*
X0108426Y0232378D01*
X0108512Y0232268D01*
X0108595Y0232154D01*
X0108674Y0232039D01*
X0108751Y0231921D01*
X0108824Y0231801D01*
X0108893Y0231680D01*
X0108959Y0231556D01*
X0109022Y0231430D01*
X0109081Y0231303D01*
X0109136Y0231174D01*
X0109188Y0231044D01*
X0109236Y0230912D01*
X0109281Y0230779D01*
X0109322Y0230645D01*
X0109359Y0230510D01*
X0109392Y0230374D01*
X0109421Y0230236D01*
X0109446Y0230099D01*
X0109468Y0229960D01*
X0109486Y0229821D01*
X0109499Y0229681D01*
X0109509Y0229541D01*
X0109515Y0229401D01*
X0109517Y0229261D01*
X0109517Y0009300D01*
X0109515Y0009160D01*
X0109509Y0009020D01*
X0109499Y0008880D01*
X0109486Y0008740D01*
X0109468Y0008601D01*
X0109446Y0008462D01*
X0109421Y0008325D01*
X0109392Y0008187D01*
X0109359Y0008051D01*
X0109322Y0007916D01*
X0109281Y0007782D01*
X0109236Y0007649D01*
X0109188Y0007517D01*
X0109136Y0007387D01*
X0109081Y0007258D01*
X0109022Y0007131D01*
X0108959Y0007005D01*
X0108893Y0006881D01*
X0108824Y0006760D01*
X0108751Y0006640D01*
X0108674Y0006522D01*
X0108595Y0006407D01*
X0108512Y0006293D01*
X0108426Y0006183D01*
X0108337Y0006074D01*
X0108245Y0005968D01*
X0108150Y0005865D01*
X0108053Y0005764D01*
X0107952Y0005667D01*
X0107849Y0005572D01*
X0107743Y0005480D01*
X0107634Y0005391D01*
X0107524Y0005305D01*
X0107410Y0005222D01*
X0107295Y0005143D01*
X0107177Y0005066D01*
X0107057Y0004993D01*
X0106936Y0004924D01*
X0106812Y0004858D01*
X0106686Y0004795D01*
X0106559Y0004736D01*
X0106430Y0004681D01*
X0106300Y0004629D01*
X0106168Y0004581D01*
X0106035Y0004536D01*
X0105901Y0004495D01*
X0105766Y0004458D01*
X0105630Y0004425D01*
X0105492Y0004396D01*
X0105355Y0004371D01*
X0105216Y0004349D01*
X0105077Y0004331D01*
X0104937Y0004318D01*
X0104797Y0004308D01*
X0104657Y0004302D01*
X0104517Y0004300D01*
X0009567Y0004300D01*
X0009427Y0004302D01*
X0009287Y0004308D01*
X0009147Y0004318D01*
X0009007Y0004331D01*
X0008868Y0004349D01*
X0008729Y0004371D01*
X0008592Y0004396D01*
X0008454Y0004425D01*
X0008318Y0004458D01*
X0008183Y0004495D01*
X0008049Y0004536D01*
X0007916Y0004581D01*
X0007784Y0004629D01*
X0007654Y0004681D01*
X0007525Y0004736D01*
X0007398Y0004795D01*
X0007272Y0004858D01*
X0007148Y0004924D01*
X0007027Y0004993D01*
X0006907Y0005066D01*
X0006789Y0005143D01*
X0006674Y0005222D01*
X0006560Y0005305D01*
X0006450Y0005391D01*
X0006341Y0005480D01*
X0006235Y0005572D01*
X0006132Y0005667D01*
X0006031Y0005764D01*
X0005934Y0005865D01*
X0005839Y0005968D01*
X0005747Y0006074D01*
X0005658Y0006183D01*
X0005572Y0006293D01*
X0005489Y0006407D01*
X0005410Y0006522D01*
X0005333Y0006640D01*
X0005260Y0006760D01*
X0005191Y0006881D01*
X0005125Y0007005D01*
X0005062Y0007131D01*
X0005003Y0007258D01*
X0004948Y0007387D01*
X0004896Y0007517D01*
X0004848Y0007649D01*
X0004803Y0007782D01*
X0004762Y0007916D01*
X0004725Y0008051D01*
X0004692Y0008187D01*
X0004663Y0008325D01*
X0004638Y0008462D01*
X0004616Y0008601D01*
X0004598Y0008740D01*
X0004585Y0008880D01*
X0004575Y0009020D01*
X0004569Y0009160D01*
X0004567Y0009300D01*
X0089224Y0025850D02*
X0089290Y0025850D01*
X0089240Y0025900D01*
X0089240Y0025800D01*
X0089316Y0025800D02*
X0089383Y0025800D01*
X0089408Y0025800D02*
X0089475Y0025800D01*
X0089475Y0025900D01*
X0089408Y0025900D01*
X0089383Y0025867D02*
X0089349Y0025900D01*
X0089349Y0025800D01*
X0089441Y0025850D02*
X0089475Y0025850D01*
X0089500Y0025833D02*
X0089500Y0025817D01*
X0089517Y0025800D01*
X0089550Y0025800D01*
X0089567Y0025817D01*
X0089550Y0025850D02*
X0089517Y0025850D01*
X0089500Y0025833D01*
X0089500Y0025883D02*
X0089517Y0025900D01*
X0089550Y0025900D01*
X0089567Y0025883D01*
X0089567Y0025867D01*
X0089550Y0025850D01*
X0101740Y0013400D02*
X0101790Y0013350D01*
X0101724Y0013350D01*
X0101740Y0013300D02*
X0101740Y0013400D01*
X0101849Y0013400D02*
X0101849Y0013300D01*
X0101816Y0013300D02*
X0101883Y0013300D01*
X0101908Y0013300D02*
X0101975Y0013300D01*
X0101975Y0013400D01*
X0101908Y0013400D01*
X0101883Y0013367D02*
X0101849Y0013400D01*
X0101941Y0013350D02*
X0101975Y0013350D01*
X0102000Y0013333D02*
X0102000Y0013317D01*
X0102017Y0013300D01*
X0102050Y0013300D01*
X0102067Y0013317D01*
X0102050Y0013350D02*
X0102017Y0013350D01*
X0102000Y0013333D01*
X0102000Y0013383D02*
X0102017Y0013400D01*
X0102050Y0013400D01*
X0102067Y0013383D01*
X0102067Y0013367D01*
X0102050Y0013350D01*
D11*
X0099067Y0011800D02*
X0099069Y0011909D01*
X0099075Y0012018D01*
X0099085Y0012126D01*
X0099099Y0012234D01*
X0099116Y0012342D01*
X0099138Y0012449D01*
X0099163Y0012555D01*
X0099193Y0012659D01*
X0099226Y0012763D01*
X0099263Y0012866D01*
X0099303Y0012967D01*
X0099347Y0013066D01*
X0099395Y0013164D01*
X0099447Y0013261D01*
X0099501Y0013355D01*
X0099559Y0013447D01*
X0099621Y0013537D01*
X0099686Y0013624D01*
X0099753Y0013710D01*
X0099824Y0013793D01*
X0099898Y0013873D01*
X0099975Y0013950D01*
X0100054Y0014025D01*
X0100136Y0014096D01*
X0100221Y0014165D01*
X0100308Y0014230D01*
X0100397Y0014293D01*
X0100489Y0014351D01*
X0100583Y0014407D01*
X0100678Y0014459D01*
X0100776Y0014508D01*
X0100875Y0014553D01*
X0100976Y0014595D01*
X0101078Y0014632D01*
X0101181Y0014666D01*
X0101286Y0014697D01*
X0101392Y0014723D01*
X0101498Y0014746D01*
X0101606Y0014764D01*
X0101714Y0014779D01*
X0101822Y0014790D01*
X0101931Y0014797D01*
X0102040Y0014800D01*
X0102149Y0014799D01*
X0102258Y0014794D01*
X0102366Y0014785D01*
X0102474Y0014772D01*
X0102582Y0014755D01*
X0102689Y0014735D01*
X0102795Y0014710D01*
X0102900Y0014682D01*
X0103004Y0014650D01*
X0103107Y0014614D01*
X0103209Y0014574D01*
X0103309Y0014531D01*
X0103407Y0014484D01*
X0103504Y0014434D01*
X0103598Y0014380D01*
X0103691Y0014322D01*
X0103782Y0014262D01*
X0103870Y0014198D01*
X0103956Y0014131D01*
X0104039Y0014061D01*
X0104120Y0013988D01*
X0104198Y0013912D01*
X0104273Y0013833D01*
X0104346Y0013751D01*
X0104415Y0013667D01*
X0104481Y0013581D01*
X0104544Y0013492D01*
X0104604Y0013401D01*
X0104661Y0013308D01*
X0104714Y0013213D01*
X0104763Y0013116D01*
X0104809Y0013017D01*
X0104851Y0012917D01*
X0104890Y0012815D01*
X0104925Y0012711D01*
X0104956Y0012607D01*
X0104984Y0012502D01*
X0105007Y0012395D01*
X0105027Y0012288D01*
X0105043Y0012180D01*
X0105055Y0012072D01*
X0105063Y0011963D01*
X0105067Y0011854D01*
X0105067Y0011746D01*
X0105063Y0011637D01*
X0105055Y0011528D01*
X0105043Y0011420D01*
X0105027Y0011312D01*
X0105007Y0011205D01*
X0104984Y0011098D01*
X0104956Y0010993D01*
X0104925Y0010889D01*
X0104890Y0010785D01*
X0104851Y0010683D01*
X0104809Y0010583D01*
X0104763Y0010484D01*
X0104714Y0010387D01*
X0104661Y0010292D01*
X0104604Y0010199D01*
X0104544Y0010108D01*
X0104481Y0010019D01*
X0104415Y0009933D01*
X0104346Y0009849D01*
X0104273Y0009767D01*
X0104198Y0009688D01*
X0104120Y0009612D01*
X0104039Y0009539D01*
X0103956Y0009469D01*
X0103870Y0009402D01*
X0103782Y0009338D01*
X0103691Y0009278D01*
X0103598Y0009220D01*
X0103504Y0009166D01*
X0103407Y0009116D01*
X0103309Y0009069D01*
X0103209Y0009026D01*
X0103107Y0008986D01*
X0103004Y0008950D01*
X0102900Y0008918D01*
X0102795Y0008890D01*
X0102689Y0008865D01*
X0102582Y0008845D01*
X0102474Y0008828D01*
X0102366Y0008815D01*
X0102258Y0008806D01*
X0102149Y0008801D01*
X0102040Y0008800D01*
X0101931Y0008803D01*
X0101822Y0008810D01*
X0101714Y0008821D01*
X0101606Y0008836D01*
X0101498Y0008854D01*
X0101392Y0008877D01*
X0101286Y0008903D01*
X0101181Y0008934D01*
X0101078Y0008968D01*
X0100976Y0009005D01*
X0100875Y0009047D01*
X0100776Y0009092D01*
X0100678Y0009141D01*
X0100583Y0009193D01*
X0100489Y0009249D01*
X0100397Y0009307D01*
X0100308Y0009370D01*
X0100221Y0009435D01*
X0100136Y0009504D01*
X0100054Y0009575D01*
X0099975Y0009650D01*
X0099898Y0009727D01*
X0099824Y0009807D01*
X0099753Y0009890D01*
X0099686Y0009976D01*
X0099621Y0010063D01*
X0099559Y0010153D01*
X0099501Y0010245D01*
X0099447Y0010339D01*
X0099395Y0010436D01*
X0099347Y0010534D01*
X0099303Y0010633D01*
X0099263Y0010734D01*
X0099226Y0010837D01*
X0099193Y0010941D01*
X0099163Y0011045D01*
X0099138Y0011151D01*
X0099116Y0011258D01*
X0099099Y0011366D01*
X0099085Y0011474D01*
X0099075Y0011582D01*
X0099069Y0011691D01*
X0099067Y0011800D01*
X0096067Y0009300D02*
X0099567Y0005800D01*
X0104567Y0005800D01*
X0108067Y0009300D01*
X0108067Y0014300D01*
X0104567Y0017800D01*
X0099567Y0017800D01*
X0096067Y0014300D01*
X0096067Y0009300D01*
X0092067Y0018300D02*
X0087067Y0018300D01*
X0083567Y0021800D01*
X0083567Y0026800D01*
X0087067Y0030300D01*
X0092067Y0030300D01*
X0095567Y0026800D01*
X0095567Y0021800D01*
X0092067Y0018300D01*
X0086567Y0024300D02*
X0086569Y0024409D01*
X0086575Y0024518D01*
X0086585Y0024626D01*
X0086599Y0024734D01*
X0086616Y0024842D01*
X0086638Y0024949D01*
X0086663Y0025055D01*
X0086693Y0025159D01*
X0086726Y0025263D01*
X0086763Y0025366D01*
X0086803Y0025467D01*
X0086847Y0025566D01*
X0086895Y0025664D01*
X0086947Y0025761D01*
X0087001Y0025855D01*
X0087059Y0025947D01*
X0087121Y0026037D01*
X0087186Y0026124D01*
X0087253Y0026210D01*
X0087324Y0026293D01*
X0087398Y0026373D01*
X0087475Y0026450D01*
X0087554Y0026525D01*
X0087636Y0026596D01*
X0087721Y0026665D01*
X0087808Y0026730D01*
X0087897Y0026793D01*
X0087989Y0026851D01*
X0088083Y0026907D01*
X0088178Y0026959D01*
X0088276Y0027008D01*
X0088375Y0027053D01*
X0088476Y0027095D01*
X0088578Y0027132D01*
X0088681Y0027166D01*
X0088786Y0027197D01*
X0088892Y0027223D01*
X0088998Y0027246D01*
X0089106Y0027264D01*
X0089214Y0027279D01*
X0089322Y0027290D01*
X0089431Y0027297D01*
X0089540Y0027300D01*
X0089649Y0027299D01*
X0089758Y0027294D01*
X0089866Y0027285D01*
X0089974Y0027272D01*
X0090082Y0027255D01*
X0090189Y0027235D01*
X0090295Y0027210D01*
X0090400Y0027182D01*
X0090504Y0027150D01*
X0090607Y0027114D01*
X0090709Y0027074D01*
X0090809Y0027031D01*
X0090907Y0026984D01*
X0091004Y0026934D01*
X0091098Y0026880D01*
X0091191Y0026822D01*
X0091282Y0026762D01*
X0091370Y0026698D01*
X0091456Y0026631D01*
X0091539Y0026561D01*
X0091620Y0026488D01*
X0091698Y0026412D01*
X0091773Y0026333D01*
X0091846Y0026251D01*
X0091915Y0026167D01*
X0091981Y0026081D01*
X0092044Y0025992D01*
X0092104Y0025901D01*
X0092161Y0025808D01*
X0092214Y0025713D01*
X0092263Y0025616D01*
X0092309Y0025517D01*
X0092351Y0025417D01*
X0092390Y0025315D01*
X0092425Y0025211D01*
X0092456Y0025107D01*
X0092484Y0025002D01*
X0092507Y0024895D01*
X0092527Y0024788D01*
X0092543Y0024680D01*
X0092555Y0024572D01*
X0092563Y0024463D01*
X0092567Y0024354D01*
X0092567Y0024246D01*
X0092563Y0024137D01*
X0092555Y0024028D01*
X0092543Y0023920D01*
X0092527Y0023812D01*
X0092507Y0023705D01*
X0092484Y0023598D01*
X0092456Y0023493D01*
X0092425Y0023389D01*
X0092390Y0023285D01*
X0092351Y0023183D01*
X0092309Y0023083D01*
X0092263Y0022984D01*
X0092214Y0022887D01*
X0092161Y0022792D01*
X0092104Y0022699D01*
X0092044Y0022608D01*
X0091981Y0022519D01*
X0091915Y0022433D01*
X0091846Y0022349D01*
X0091773Y0022267D01*
X0091698Y0022188D01*
X0091620Y0022112D01*
X0091539Y0022039D01*
X0091456Y0021969D01*
X0091370Y0021902D01*
X0091282Y0021838D01*
X0091191Y0021778D01*
X0091098Y0021720D01*
X0091004Y0021666D01*
X0090907Y0021616D01*
X0090809Y0021569D01*
X0090709Y0021526D01*
X0090607Y0021486D01*
X0090504Y0021450D01*
X0090400Y0021418D01*
X0090295Y0021390D01*
X0090189Y0021365D01*
X0090082Y0021345D01*
X0089974Y0021328D01*
X0089866Y0021315D01*
X0089758Y0021306D01*
X0089649Y0021301D01*
X0089540Y0021300D01*
X0089431Y0021303D01*
X0089322Y0021310D01*
X0089214Y0021321D01*
X0089106Y0021336D01*
X0088998Y0021354D01*
X0088892Y0021377D01*
X0088786Y0021403D01*
X0088681Y0021434D01*
X0088578Y0021468D01*
X0088476Y0021505D01*
X0088375Y0021547D01*
X0088276Y0021592D01*
X0088178Y0021641D01*
X0088083Y0021693D01*
X0087989Y0021749D01*
X0087897Y0021807D01*
X0087808Y0021870D01*
X0087721Y0021935D01*
X0087636Y0022004D01*
X0087554Y0022075D01*
X0087475Y0022150D01*
X0087398Y0022227D01*
X0087324Y0022307D01*
X0087253Y0022390D01*
X0087186Y0022476D01*
X0087121Y0022563D01*
X0087059Y0022653D01*
X0087001Y0022745D01*
X0086947Y0022839D01*
X0086895Y0022936D01*
X0086847Y0023034D01*
X0086803Y0023133D01*
X0086763Y0023234D01*
X0086726Y0023337D01*
X0086693Y0023441D01*
X0086663Y0023545D01*
X0086638Y0023651D01*
X0086616Y0023758D01*
X0086599Y0023866D01*
X0086585Y0023974D01*
X0086575Y0024082D01*
X0086569Y0024191D01*
X0086567Y0024300D01*
X0091560Y0043466D02*
X0090993Y0044033D01*
X0090993Y0046869D01*
X0092695Y0046869D01*
X0093262Y0046301D01*
X0093262Y0045167D01*
X0092695Y0044600D01*
X0090993Y0044600D01*
X0091560Y0043466D02*
X0092127Y0043466D01*
X0089579Y0044600D02*
X0089579Y0046869D01*
X0087877Y0046869D01*
X0087310Y0046301D01*
X0087310Y0044600D01*
X0085896Y0045167D02*
X0085896Y0046301D01*
X0085328Y0046869D01*
X0084194Y0046869D01*
X0083627Y0046301D01*
X0083627Y0045734D01*
X0085896Y0045734D01*
X0085896Y0045167D02*
X0085328Y0044600D01*
X0084194Y0044600D01*
X0082212Y0045167D02*
X0082212Y0046301D01*
X0081645Y0046869D01*
X0079944Y0046869D01*
X0079944Y0048003D02*
X0079944Y0044600D01*
X0081645Y0044600D01*
X0082212Y0045167D01*
X0074846Y0044600D02*
X0073712Y0044600D01*
X0074279Y0044600D02*
X0074279Y0046869D01*
X0074846Y0046869D01*
X0074279Y0048003D02*
X0074279Y0048570D01*
X0072391Y0046869D02*
X0072391Y0044600D01*
X0072391Y0046869D02*
X0070689Y0046869D01*
X0070122Y0046301D01*
X0070122Y0044600D01*
X0065024Y0045167D02*
X0064457Y0044600D01*
X0063323Y0044600D01*
X0062756Y0045167D01*
X0062756Y0046301D01*
X0063890Y0046301D01*
X0065024Y0045167D02*
X0065024Y0047436D01*
X0064457Y0048003D01*
X0063323Y0048003D01*
X0062756Y0047436D01*
X0061341Y0046301D02*
X0061341Y0045167D01*
X0060774Y0044600D01*
X0059640Y0044600D01*
X0059073Y0045734D02*
X0061341Y0045734D01*
X0061341Y0046301D02*
X0060774Y0046869D01*
X0059640Y0046869D01*
X0059073Y0046301D01*
X0059073Y0045734D01*
X0057658Y0045734D02*
X0056524Y0046869D01*
X0055957Y0046869D01*
X0057658Y0046869D02*
X0057658Y0044600D01*
X0054589Y0044600D02*
X0054589Y0046869D01*
X0054022Y0046869D01*
X0053454Y0046301D01*
X0052887Y0046869D01*
X0052320Y0046301D01*
X0052320Y0044600D01*
X0053454Y0044600D02*
X0053454Y0046301D01*
X0050906Y0045167D02*
X0050338Y0045734D01*
X0048637Y0045734D01*
X0048637Y0046301D02*
X0048637Y0044600D01*
X0050338Y0044600D01*
X0050906Y0045167D01*
X0050338Y0046869D02*
X0049204Y0046869D01*
X0048637Y0046301D01*
X0047223Y0046869D02*
X0047223Y0044600D01*
X0047223Y0046869D02*
X0045521Y0046869D01*
X0044954Y0046301D01*
X0044954Y0044600D01*
X0043539Y0045167D02*
X0043539Y0046869D01*
X0043539Y0045167D02*
X0042972Y0044600D01*
X0041271Y0044600D01*
X0041271Y0044033D02*
X0041838Y0043466D01*
X0042405Y0043466D01*
X0041271Y0044033D02*
X0041271Y0046869D01*
X0036173Y0046869D02*
X0036173Y0045167D01*
X0035606Y0044600D01*
X0035039Y0045167D01*
X0034472Y0044600D01*
X0033904Y0045167D01*
X0033904Y0046869D01*
X0032490Y0046869D02*
X0031923Y0046869D01*
X0031923Y0044600D01*
X0032490Y0044600D02*
X0031356Y0044600D01*
X0030034Y0046869D02*
X0028900Y0046869D01*
X0029467Y0047436D02*
X0029467Y0045167D01*
X0028900Y0044600D01*
X0027579Y0044600D02*
X0027579Y0048003D01*
X0027012Y0046869D02*
X0025878Y0046869D01*
X0025310Y0046301D01*
X0025310Y0044600D01*
X0027579Y0046301D02*
X0027012Y0046869D01*
X0031923Y0048003D02*
X0031923Y0048570D01*
X0020213Y0048003D02*
X0019646Y0048003D01*
X0019646Y0044600D01*
X0020213Y0044600D02*
X0019078Y0044600D01*
X0017757Y0045167D02*
X0017757Y0046301D01*
X0017190Y0046869D01*
X0016056Y0046869D01*
X0015489Y0046301D01*
X0015489Y0045167D01*
X0016056Y0044600D01*
X0017190Y0044600D01*
X0017757Y0045167D01*
X0014074Y0046869D02*
X0012940Y0044600D01*
X0011806Y0046869D01*
X0010391Y0046301D02*
X0010391Y0045167D01*
X0009824Y0044600D01*
X0008690Y0044600D01*
X0008122Y0045734D02*
X0010391Y0045734D01*
X0010391Y0046301D02*
X0009824Y0046869D01*
X0008690Y0046869D01*
X0008122Y0046301D01*
X0008122Y0045734D01*
X0094583Y0044600D02*
X0095717Y0044600D01*
X0095150Y0044600D02*
X0095150Y0046869D01*
X0095717Y0046869D01*
X0095150Y0048003D02*
X0095150Y0048570D01*
X0097132Y0046869D02*
X0098833Y0046869D01*
X0099400Y0046301D01*
X0098833Y0045734D01*
X0097699Y0045734D01*
X0097132Y0045167D01*
X0097699Y0044600D01*
X0099400Y0044600D01*
X0100815Y0045734D02*
X0103084Y0045734D01*
X0103084Y0045167D02*
X0103084Y0046301D01*
X0102516Y0046869D01*
X0101382Y0046869D01*
X0100815Y0046301D01*
X0100815Y0045734D01*
X0101382Y0044600D02*
X0102516Y0044600D01*
X0103084Y0045167D01*
X0104498Y0045167D02*
X0104498Y0047436D01*
X0105065Y0048003D01*
X0106767Y0048003D01*
X0106767Y0044600D01*
X0105065Y0044600D01*
X0104498Y0045167D01*
D12*
X0089067Y0055734D02*
X0088133Y0054800D01*
X0086264Y0054800D01*
X0085330Y0055734D01*
X0085330Y0059471D01*
X0086264Y0060405D01*
X0088133Y0060405D01*
X0089067Y0059471D01*
X0089067Y0055734D01*
X0082989Y0055734D02*
X0082055Y0054800D01*
X0079253Y0054800D01*
X0079253Y0053866D02*
X0079253Y0058537D01*
X0082055Y0058537D01*
X0082989Y0057602D01*
X0082989Y0055734D01*
X0081121Y0052932D02*
X0080187Y0052932D01*
X0079253Y0053866D01*
X0076912Y0054800D02*
X0076912Y0058537D01*
X0074110Y0058537D01*
X0073176Y0057602D01*
X0073176Y0054800D01*
X0070835Y0054800D02*
X0068967Y0054800D01*
X0069901Y0054800D02*
X0069901Y0058537D01*
X0070835Y0058537D01*
X0069901Y0060405D02*
X0069901Y0061339D01*
X0066784Y0058537D02*
X0064915Y0058537D01*
X0065850Y0059471D02*
X0065850Y0055734D01*
X0064915Y0054800D01*
X0062732Y0055734D02*
X0062732Y0057602D01*
X0061798Y0058537D01*
X0059930Y0058537D01*
X0058996Y0057602D01*
X0058996Y0056668D01*
X0062732Y0056668D01*
X0062732Y0055734D02*
X0061798Y0054800D01*
X0059930Y0054800D01*
X0050578Y0055734D02*
X0049644Y0054800D01*
X0047775Y0054800D01*
X0046841Y0055734D01*
X0046841Y0059471D02*
X0047775Y0060405D01*
X0049644Y0060405D01*
X0050578Y0059471D01*
X0050578Y0055734D01*
X0044501Y0054800D02*
X0042632Y0054800D01*
X0043566Y0054800D02*
X0043566Y0060405D01*
X0044501Y0060405D01*
X0040449Y0057602D02*
X0040449Y0055734D01*
X0039515Y0054800D01*
X0037647Y0054800D01*
X0036713Y0055734D01*
X0036713Y0057602D01*
X0037647Y0058537D01*
X0039515Y0058537D01*
X0040449Y0057602D01*
X0034372Y0058537D02*
X0034372Y0054800D01*
X0034372Y0058537D02*
X0031570Y0058537D01*
X0030635Y0057602D01*
X0030635Y0054800D01*
X0028295Y0055734D02*
X0028295Y0057602D01*
X0027361Y0058537D01*
X0025492Y0058537D01*
X0024558Y0057602D01*
X0024558Y0056668D01*
X0028295Y0056668D01*
X0028295Y0055734D02*
X0027361Y0054800D01*
X0025492Y0054800D01*
X0088067Y0024300D02*
X0088069Y0024377D01*
X0088075Y0024454D01*
X0088085Y0024531D01*
X0088099Y0024607D01*
X0088116Y0024682D01*
X0088138Y0024756D01*
X0088163Y0024829D01*
X0088193Y0024901D01*
X0088225Y0024971D01*
X0088262Y0025039D01*
X0088301Y0025105D01*
X0088344Y0025169D01*
X0088391Y0025231D01*
X0088440Y0025290D01*
X0088493Y0025347D01*
X0088548Y0025401D01*
X0088606Y0025452D01*
X0088667Y0025500D01*
X0088730Y0025545D01*
X0088795Y0025586D01*
X0088862Y0025624D01*
X0088931Y0025659D01*
X0089002Y0025689D01*
X0089074Y0025717D01*
X0089148Y0025740D01*
X0089222Y0025760D01*
X0089298Y0025776D01*
X0089374Y0025788D01*
X0089451Y0025796D01*
X0089528Y0025800D01*
X0089606Y0025800D01*
X0089683Y0025796D01*
X0089760Y0025788D01*
X0089836Y0025776D01*
X0089912Y0025760D01*
X0089986Y0025740D01*
X0090060Y0025717D01*
X0090132Y0025689D01*
X0090203Y0025659D01*
X0090272Y0025624D01*
X0090339Y0025586D01*
X0090404Y0025545D01*
X0090467Y0025500D01*
X0090528Y0025452D01*
X0090586Y0025401D01*
X0090641Y0025347D01*
X0090694Y0025290D01*
X0090743Y0025231D01*
X0090790Y0025169D01*
X0090833Y0025105D01*
X0090872Y0025039D01*
X0090909Y0024971D01*
X0090941Y0024901D01*
X0090971Y0024829D01*
X0090996Y0024756D01*
X0091018Y0024682D01*
X0091035Y0024607D01*
X0091049Y0024531D01*
X0091059Y0024454D01*
X0091065Y0024377D01*
X0091067Y0024300D01*
X0091065Y0024223D01*
X0091059Y0024146D01*
X0091049Y0024069D01*
X0091035Y0023993D01*
X0091018Y0023918D01*
X0090996Y0023844D01*
X0090971Y0023771D01*
X0090941Y0023699D01*
X0090909Y0023629D01*
X0090872Y0023561D01*
X0090833Y0023495D01*
X0090790Y0023431D01*
X0090743Y0023369D01*
X0090694Y0023310D01*
X0090641Y0023253D01*
X0090586Y0023199D01*
X0090528Y0023148D01*
X0090467Y0023100D01*
X0090404Y0023055D01*
X0090339Y0023014D01*
X0090272Y0022976D01*
X0090203Y0022941D01*
X0090132Y0022911D01*
X0090060Y0022883D01*
X0089986Y0022860D01*
X0089912Y0022840D01*
X0089836Y0022824D01*
X0089760Y0022812D01*
X0089683Y0022804D01*
X0089606Y0022800D01*
X0089528Y0022800D01*
X0089451Y0022804D01*
X0089374Y0022812D01*
X0089298Y0022824D01*
X0089222Y0022840D01*
X0089148Y0022860D01*
X0089074Y0022883D01*
X0089002Y0022911D01*
X0088931Y0022941D01*
X0088862Y0022976D01*
X0088795Y0023014D01*
X0088730Y0023055D01*
X0088667Y0023100D01*
X0088606Y0023148D01*
X0088548Y0023199D01*
X0088493Y0023253D01*
X0088440Y0023310D01*
X0088391Y0023369D01*
X0088344Y0023431D01*
X0088301Y0023495D01*
X0088262Y0023561D01*
X0088225Y0023629D01*
X0088193Y0023699D01*
X0088163Y0023771D01*
X0088138Y0023844D01*
X0088116Y0023918D01*
X0088099Y0023993D01*
X0088085Y0024069D01*
X0088075Y0024146D01*
X0088069Y0024223D01*
X0088067Y0024300D01*
X0100567Y0011800D02*
X0100569Y0011877D01*
X0100575Y0011954D01*
X0100585Y0012031D01*
X0100599Y0012107D01*
X0100616Y0012182D01*
X0100638Y0012256D01*
X0100663Y0012329D01*
X0100693Y0012401D01*
X0100725Y0012471D01*
X0100762Y0012539D01*
X0100801Y0012605D01*
X0100844Y0012669D01*
X0100891Y0012731D01*
X0100940Y0012790D01*
X0100993Y0012847D01*
X0101048Y0012901D01*
X0101106Y0012952D01*
X0101167Y0013000D01*
X0101230Y0013045D01*
X0101295Y0013086D01*
X0101362Y0013124D01*
X0101431Y0013159D01*
X0101502Y0013189D01*
X0101574Y0013217D01*
X0101648Y0013240D01*
X0101722Y0013260D01*
X0101798Y0013276D01*
X0101874Y0013288D01*
X0101951Y0013296D01*
X0102028Y0013300D01*
X0102106Y0013300D01*
X0102183Y0013296D01*
X0102260Y0013288D01*
X0102336Y0013276D01*
X0102412Y0013260D01*
X0102486Y0013240D01*
X0102560Y0013217D01*
X0102632Y0013189D01*
X0102703Y0013159D01*
X0102772Y0013124D01*
X0102839Y0013086D01*
X0102904Y0013045D01*
X0102967Y0013000D01*
X0103028Y0012952D01*
X0103086Y0012901D01*
X0103141Y0012847D01*
X0103194Y0012790D01*
X0103243Y0012731D01*
X0103290Y0012669D01*
X0103333Y0012605D01*
X0103372Y0012539D01*
X0103409Y0012471D01*
X0103441Y0012401D01*
X0103471Y0012329D01*
X0103496Y0012256D01*
X0103518Y0012182D01*
X0103535Y0012107D01*
X0103549Y0012031D01*
X0103559Y0011954D01*
X0103565Y0011877D01*
X0103567Y0011800D01*
X0103565Y0011723D01*
X0103559Y0011646D01*
X0103549Y0011569D01*
X0103535Y0011493D01*
X0103518Y0011418D01*
X0103496Y0011344D01*
X0103471Y0011271D01*
X0103441Y0011199D01*
X0103409Y0011129D01*
X0103372Y0011061D01*
X0103333Y0010995D01*
X0103290Y0010931D01*
X0103243Y0010869D01*
X0103194Y0010810D01*
X0103141Y0010753D01*
X0103086Y0010699D01*
X0103028Y0010648D01*
X0102967Y0010600D01*
X0102904Y0010555D01*
X0102839Y0010514D01*
X0102772Y0010476D01*
X0102703Y0010441D01*
X0102632Y0010411D01*
X0102560Y0010383D01*
X0102486Y0010360D01*
X0102412Y0010340D01*
X0102336Y0010324D01*
X0102260Y0010312D01*
X0102183Y0010304D01*
X0102106Y0010300D01*
X0102028Y0010300D01*
X0101951Y0010304D01*
X0101874Y0010312D01*
X0101798Y0010324D01*
X0101722Y0010340D01*
X0101648Y0010360D01*
X0101574Y0010383D01*
X0101502Y0010411D01*
X0101431Y0010441D01*
X0101362Y0010476D01*
X0101295Y0010514D01*
X0101230Y0010555D01*
X0101167Y0010600D01*
X0101106Y0010648D01*
X0101048Y0010699D01*
X0100993Y0010753D01*
X0100940Y0010810D01*
X0100891Y0010869D01*
X0100844Y0010931D01*
X0100801Y0010995D01*
X0100762Y0011061D01*
X0100725Y0011129D01*
X0100693Y0011199D01*
X0100663Y0011271D01*
X0100638Y0011344D01*
X0100616Y0011418D01*
X0100599Y0011493D01*
X0100585Y0011569D01*
X0100575Y0011646D01*
X0100569Y0011723D01*
X0100567Y0011800D01*
D13*
X0102267Y0021802D02*
X0105336Y0021802D01*
X0087836Y0014302D02*
X0084767Y0014302D01*
X0086301Y0015837D02*
X0086301Y0012767D01*
D14*
X0017067Y0003800D02*
X0003567Y0003800D01*
X0003567Y0029800D01*
X0017067Y0029800D01*
X0017067Y0003800D01*
X0067067Y0003800D01*
X0080567Y0003800D01*
X0080567Y0029800D01*
X0067067Y0029800D01*
X0067067Y0003800D01*
X0067067Y0029800D02*
X0017067Y0029800D01*
M02*
