%
M48
M72
T01C0.03200
T02C0.04400
T03C0.05118
T04C0.05500
%
T01
X12067Y221800
X12067Y201800
X12067Y181800
X22067Y181800
X22067Y201800
X22067Y221800
X32067Y221800
X42067Y221800
X42067Y201800
X32067Y201800
X32067Y181800
X42067Y181800
X52067Y181800
X52067Y201800
X52067Y221800
X62067Y221800
X62067Y201800
X62067Y181800
X72067Y181800
X72067Y201800
X72067Y221800
X82067Y221800
X92067Y221800
X92067Y201800
X82067Y201800
X82067Y181800
X92067Y181800
X102067Y181800
X102067Y201800
X102067Y221800
X102067Y161800
X102067Y141800
X102067Y121800
X92067Y121800
X82067Y121800
X82067Y141800
X92067Y141800
X92067Y161800
X82067Y161800
X72067Y161800
X72067Y141800
X72067Y121800
X62067Y121800
X62067Y141800
X62067Y161800
X52067Y161800
X52067Y141800
X52067Y121800
X42067Y121800
X32067Y121800
X32067Y141800
X42067Y141800
X42067Y161800
X32067Y161800
X22067Y161800
X22067Y141800
X22067Y121800
X12067Y121800
X12067Y141800
X12067Y161800
X12067Y101800
X12067Y81800
X22067Y81800
X22067Y101800
X32067Y101800
X42067Y101800
X42067Y81800
X32067Y81800
X52067Y81800
X52067Y101800
X62067Y101800
X62067Y81800
X72067Y81800
X72067Y101800
X82067Y101800
X92067Y101800
X92067Y81800
X82067Y81800
X102067Y81800
X102067Y101800
T02
X12067Y36800
X22067Y36800
X32067Y36800
X42067Y36800
X52067Y36800
X62067Y36800
X72067Y36800
X82067Y36800
X92067Y36800
X102067Y36800
X102067Y66800
X92067Y66800
X82067Y66800
X72067Y66800
X62067Y66800
X52067Y66800
X42067Y66800
X32067Y66800
X22067Y66800
X12067Y66800
T03
X23567Y16800
X42067Y16800
X60567Y16800
T04
X89567Y24300
X102067Y11800
M30
