G75*
%MOIN*%
%OFA0B0*%
%FSLAX25Y25*%
%IPPOS*%
%LPD*%
%AMOC8*
5,1,8,0,0,1.08239X$1,22.5*
%
%ADD10C,0.00000*%
D10*
X0004567Y0009300D02*
X0004567Y0229261D01*
X0004569Y0229401D01*
X0004575Y0229541D01*
X0004585Y0229681D01*
X0004598Y0229821D01*
X0004616Y0229960D01*
X0004638Y0230099D01*
X0004663Y0230236D01*
X0004692Y0230374D01*
X0004725Y0230510D01*
X0004762Y0230645D01*
X0004803Y0230779D01*
X0004848Y0230912D01*
X0004896Y0231044D01*
X0004948Y0231174D01*
X0005003Y0231303D01*
X0005062Y0231430D01*
X0005125Y0231556D01*
X0005191Y0231680D01*
X0005260Y0231801D01*
X0005333Y0231921D01*
X0005410Y0232039D01*
X0005489Y0232154D01*
X0005572Y0232268D01*
X0005658Y0232378D01*
X0005747Y0232487D01*
X0005839Y0232593D01*
X0005934Y0232696D01*
X0006031Y0232797D01*
X0006132Y0232894D01*
X0006235Y0232989D01*
X0006341Y0233081D01*
X0006450Y0233170D01*
X0006560Y0233256D01*
X0006674Y0233339D01*
X0006789Y0233418D01*
X0006907Y0233495D01*
X0007027Y0233568D01*
X0007148Y0233637D01*
X0007272Y0233703D01*
X0007398Y0233766D01*
X0007525Y0233825D01*
X0007654Y0233880D01*
X0007784Y0233932D01*
X0007916Y0233980D01*
X0008049Y0234025D01*
X0008183Y0234066D01*
X0008318Y0234103D01*
X0008454Y0234136D01*
X0008592Y0234165D01*
X0008729Y0234190D01*
X0008868Y0234212D01*
X0009007Y0234230D01*
X0009147Y0234243D01*
X0009287Y0234253D01*
X0009427Y0234259D01*
X0009567Y0234261D01*
X0104517Y0234261D01*
X0104657Y0234259D01*
X0104797Y0234253D01*
X0104937Y0234243D01*
X0105077Y0234230D01*
X0105216Y0234212D01*
X0105355Y0234190D01*
X0105492Y0234165D01*
X0105630Y0234136D01*
X0105766Y0234103D01*
X0105901Y0234066D01*
X0106035Y0234025D01*
X0106168Y0233980D01*
X0106300Y0233932D01*
X0106430Y0233880D01*
X0106559Y0233825D01*
X0106686Y0233766D01*
X0106812Y0233703D01*
X0106936Y0233637D01*
X0107057Y0233568D01*
X0107177Y0233495D01*
X0107295Y0233418D01*
X0107410Y0233339D01*
X0107524Y0233256D01*
X0107634Y0233170D01*
X0107743Y0233081D01*
X0107849Y0232989D01*
X0107952Y0232894D01*
X0108053Y0232797D01*
X0108150Y0232696D01*
X0108245Y0232593D01*
X0108337Y0232487D01*
X0108426Y0232378D01*
X0108512Y0232268D01*
X0108595Y0232154D01*
X0108674Y0232039D01*
X0108751Y0231921D01*
X0108824Y0231801D01*
X0108893Y0231680D01*
X0108959Y0231556D01*
X0109022Y0231430D01*
X0109081Y0231303D01*
X0109136Y0231174D01*
X0109188Y0231044D01*
X0109236Y0230912D01*
X0109281Y0230779D01*
X0109322Y0230645D01*
X0109359Y0230510D01*
X0109392Y0230374D01*
X0109421Y0230236D01*
X0109446Y0230099D01*
X0109468Y0229960D01*
X0109486Y0229821D01*
X0109499Y0229681D01*
X0109509Y0229541D01*
X0109515Y0229401D01*
X0109517Y0229261D01*
X0109517Y0009300D01*
X0109515Y0009160D01*
X0109509Y0009020D01*
X0109499Y0008880D01*
X0109486Y0008740D01*
X0109468Y0008601D01*
X0109446Y0008462D01*
X0109421Y0008325D01*
X0109392Y0008187D01*
X0109359Y0008051D01*
X0109322Y0007916D01*
X0109281Y0007782D01*
X0109236Y0007649D01*
X0109188Y0007517D01*
X0109136Y0007387D01*
X0109081Y0007258D01*
X0109022Y0007131D01*
X0108959Y0007005D01*
X0108893Y0006881D01*
X0108824Y0006760D01*
X0108751Y0006640D01*
X0108674Y0006522D01*
X0108595Y0006407D01*
X0108512Y0006293D01*
X0108426Y0006183D01*
X0108337Y0006074D01*
X0108245Y0005968D01*
X0108150Y0005865D01*
X0108053Y0005764D01*
X0107952Y0005667D01*
X0107849Y0005572D01*
X0107743Y0005480D01*
X0107634Y0005391D01*
X0107524Y0005305D01*
X0107410Y0005222D01*
X0107295Y0005143D01*
X0107177Y0005066D01*
X0107057Y0004993D01*
X0106936Y0004924D01*
X0106812Y0004858D01*
X0106686Y0004795D01*
X0106559Y0004736D01*
X0106430Y0004681D01*
X0106300Y0004629D01*
X0106168Y0004581D01*
X0106035Y0004536D01*
X0105901Y0004495D01*
X0105766Y0004458D01*
X0105630Y0004425D01*
X0105492Y0004396D01*
X0105355Y0004371D01*
X0105216Y0004349D01*
X0105077Y0004331D01*
X0104937Y0004318D01*
X0104797Y0004308D01*
X0104657Y0004302D01*
X0104517Y0004300D01*
X0009567Y0004300D01*
X0009427Y0004302D01*
X0009287Y0004308D01*
X0009147Y0004318D01*
X0009007Y0004331D01*
X0008868Y0004349D01*
X0008729Y0004371D01*
X0008592Y0004396D01*
X0008454Y0004425D01*
X0008318Y0004458D01*
X0008183Y0004495D01*
X0008049Y0004536D01*
X0007916Y0004581D01*
X0007784Y0004629D01*
X0007654Y0004681D01*
X0007525Y0004736D01*
X0007398Y0004795D01*
X0007272Y0004858D01*
X0007148Y0004924D01*
X0007027Y0004993D01*
X0006907Y0005066D01*
X0006789Y0005143D01*
X0006674Y0005222D01*
X0006560Y0005305D01*
X0006450Y0005391D01*
X0006341Y0005480D01*
X0006235Y0005572D01*
X0006132Y0005667D01*
X0006031Y0005764D01*
X0005934Y0005865D01*
X0005839Y0005968D01*
X0005747Y0006074D01*
X0005658Y0006183D01*
X0005572Y0006293D01*
X0005489Y0006407D01*
X0005410Y0006522D01*
X0005333Y0006640D01*
X0005260Y0006760D01*
X0005191Y0006881D01*
X0005125Y0007005D01*
X0005062Y0007131D01*
X0005003Y0007258D01*
X0004948Y0007387D01*
X0004896Y0007517D01*
X0004848Y0007649D01*
X0004803Y0007782D01*
X0004762Y0007916D01*
X0004725Y0008051D01*
X0004692Y0008187D01*
X0004663Y0008325D01*
X0004638Y0008462D01*
X0004616Y0008601D01*
X0004598Y0008740D01*
X0004585Y0008880D01*
X0004575Y0009020D01*
X0004569Y0009160D01*
X0004567Y0009300D01*
M02*
