G75*
%MOIN*%
%OFA0B0*%
%FSLAX25Y25*%
%IPPOS*%
%LPD*%
%AMOC8*
5,1,8,0,0,1.08239X$1,22.5*
%
%ADD10C,0.00000*%
%ADD11C,0.00700*%
%ADD12OC8,0.05200*%
%ADD13OC8,0.10000*%
%ADD14R,0.06600X0.06600*%
%ADD15C,0.06600*%
%ADD16C,0.07677*%
%ADD17C,0.01600*%
D10*
X0004567Y0009300D02*
X0004567Y0229261D01*
X0004569Y0229401D01*
X0004575Y0229541D01*
X0004585Y0229681D01*
X0004598Y0229821D01*
X0004616Y0229960D01*
X0004638Y0230099D01*
X0004663Y0230236D01*
X0004692Y0230374D01*
X0004725Y0230510D01*
X0004762Y0230645D01*
X0004803Y0230779D01*
X0004848Y0230912D01*
X0004896Y0231044D01*
X0004948Y0231174D01*
X0005003Y0231303D01*
X0005062Y0231430D01*
X0005125Y0231556D01*
X0005191Y0231680D01*
X0005260Y0231801D01*
X0005333Y0231921D01*
X0005410Y0232039D01*
X0005489Y0232154D01*
X0005572Y0232268D01*
X0005658Y0232378D01*
X0005747Y0232487D01*
X0005839Y0232593D01*
X0005934Y0232696D01*
X0006031Y0232797D01*
X0006132Y0232894D01*
X0006235Y0232989D01*
X0006341Y0233081D01*
X0006450Y0233170D01*
X0006560Y0233256D01*
X0006674Y0233339D01*
X0006789Y0233418D01*
X0006907Y0233495D01*
X0007027Y0233568D01*
X0007148Y0233637D01*
X0007272Y0233703D01*
X0007398Y0233766D01*
X0007525Y0233825D01*
X0007654Y0233880D01*
X0007784Y0233932D01*
X0007916Y0233980D01*
X0008049Y0234025D01*
X0008183Y0234066D01*
X0008318Y0234103D01*
X0008454Y0234136D01*
X0008592Y0234165D01*
X0008729Y0234190D01*
X0008868Y0234212D01*
X0009007Y0234230D01*
X0009147Y0234243D01*
X0009287Y0234253D01*
X0009427Y0234259D01*
X0009567Y0234261D01*
X0104517Y0234261D01*
X0104657Y0234259D01*
X0104797Y0234253D01*
X0104937Y0234243D01*
X0105077Y0234230D01*
X0105216Y0234212D01*
X0105355Y0234190D01*
X0105492Y0234165D01*
X0105630Y0234136D01*
X0105766Y0234103D01*
X0105901Y0234066D01*
X0106035Y0234025D01*
X0106168Y0233980D01*
X0106300Y0233932D01*
X0106430Y0233880D01*
X0106559Y0233825D01*
X0106686Y0233766D01*
X0106812Y0233703D01*
X0106936Y0233637D01*
X0107057Y0233568D01*
X0107177Y0233495D01*
X0107295Y0233418D01*
X0107410Y0233339D01*
X0107524Y0233256D01*
X0107634Y0233170D01*
X0107743Y0233081D01*
X0107849Y0232989D01*
X0107952Y0232894D01*
X0108053Y0232797D01*
X0108150Y0232696D01*
X0108245Y0232593D01*
X0108337Y0232487D01*
X0108426Y0232378D01*
X0108512Y0232268D01*
X0108595Y0232154D01*
X0108674Y0232039D01*
X0108751Y0231921D01*
X0108824Y0231801D01*
X0108893Y0231680D01*
X0108959Y0231556D01*
X0109022Y0231430D01*
X0109081Y0231303D01*
X0109136Y0231174D01*
X0109188Y0231044D01*
X0109236Y0230912D01*
X0109281Y0230779D01*
X0109322Y0230645D01*
X0109359Y0230510D01*
X0109392Y0230374D01*
X0109421Y0230236D01*
X0109446Y0230099D01*
X0109468Y0229960D01*
X0109486Y0229821D01*
X0109499Y0229681D01*
X0109509Y0229541D01*
X0109515Y0229401D01*
X0109517Y0229261D01*
X0109517Y0009300D01*
X0109515Y0009160D01*
X0109509Y0009020D01*
X0109499Y0008880D01*
X0109486Y0008740D01*
X0109468Y0008601D01*
X0109446Y0008462D01*
X0109421Y0008325D01*
X0109392Y0008187D01*
X0109359Y0008051D01*
X0109322Y0007916D01*
X0109281Y0007782D01*
X0109236Y0007649D01*
X0109188Y0007517D01*
X0109136Y0007387D01*
X0109081Y0007258D01*
X0109022Y0007131D01*
X0108959Y0007005D01*
X0108893Y0006881D01*
X0108824Y0006760D01*
X0108751Y0006640D01*
X0108674Y0006522D01*
X0108595Y0006407D01*
X0108512Y0006293D01*
X0108426Y0006183D01*
X0108337Y0006074D01*
X0108245Y0005968D01*
X0108150Y0005865D01*
X0108053Y0005764D01*
X0107952Y0005667D01*
X0107849Y0005572D01*
X0107743Y0005480D01*
X0107634Y0005391D01*
X0107524Y0005305D01*
X0107410Y0005222D01*
X0107295Y0005143D01*
X0107177Y0005066D01*
X0107057Y0004993D01*
X0106936Y0004924D01*
X0106812Y0004858D01*
X0106686Y0004795D01*
X0106559Y0004736D01*
X0106430Y0004681D01*
X0106300Y0004629D01*
X0106168Y0004581D01*
X0106035Y0004536D01*
X0105901Y0004495D01*
X0105766Y0004458D01*
X0105630Y0004425D01*
X0105492Y0004396D01*
X0105355Y0004371D01*
X0105216Y0004349D01*
X0105077Y0004331D01*
X0104937Y0004318D01*
X0104797Y0004308D01*
X0104657Y0004302D01*
X0104517Y0004300D01*
X0009567Y0004300D01*
X0009427Y0004302D01*
X0009287Y0004308D01*
X0009147Y0004318D01*
X0009007Y0004331D01*
X0008868Y0004349D01*
X0008729Y0004371D01*
X0008592Y0004396D01*
X0008454Y0004425D01*
X0008318Y0004458D01*
X0008183Y0004495D01*
X0008049Y0004536D01*
X0007916Y0004581D01*
X0007784Y0004629D01*
X0007654Y0004681D01*
X0007525Y0004736D01*
X0007398Y0004795D01*
X0007272Y0004858D01*
X0007148Y0004924D01*
X0007027Y0004993D01*
X0006907Y0005066D01*
X0006789Y0005143D01*
X0006674Y0005222D01*
X0006560Y0005305D01*
X0006450Y0005391D01*
X0006341Y0005480D01*
X0006235Y0005572D01*
X0006132Y0005667D01*
X0006031Y0005764D01*
X0005934Y0005865D01*
X0005839Y0005968D01*
X0005747Y0006074D01*
X0005658Y0006183D01*
X0005572Y0006293D01*
X0005489Y0006407D01*
X0005410Y0006522D01*
X0005333Y0006640D01*
X0005260Y0006760D01*
X0005191Y0006881D01*
X0005125Y0007005D01*
X0005062Y0007131D01*
X0005003Y0007258D01*
X0004948Y0007387D01*
X0004896Y0007517D01*
X0004848Y0007649D01*
X0004803Y0007782D01*
X0004762Y0007916D01*
X0004725Y0008051D01*
X0004692Y0008187D01*
X0004663Y0008325D01*
X0004638Y0008462D01*
X0004616Y0008601D01*
X0004598Y0008740D01*
X0004585Y0008880D01*
X0004575Y0009020D01*
X0004569Y0009160D01*
X0004567Y0009300D01*
D11*
X0014814Y0189650D02*
X0017683Y0189650D01*
X0016248Y0189650D02*
X0016248Y0193954D01*
X0017683Y0192519D01*
X0023871Y0190367D02*
X0023871Y0189650D01*
X0024589Y0189650D01*
X0024589Y0190367D01*
X0023871Y0190367D01*
X0026323Y0191085D02*
X0026323Y0193954D01*
X0026323Y0191085D02*
X0027758Y0189650D01*
X0029192Y0191085D01*
X0029192Y0193954D01*
X0030927Y0193954D02*
X0033796Y0193954D01*
X0033796Y0189650D01*
X0030927Y0189650D01*
X0032362Y0191802D02*
X0033796Y0191802D01*
X0035531Y0191802D02*
X0036248Y0191085D01*
X0038400Y0191085D01*
X0036966Y0191085D02*
X0035531Y0189650D01*
X0035531Y0191802D02*
X0035531Y0193236D01*
X0036248Y0193954D01*
X0038400Y0193954D01*
X0038400Y0189650D01*
X0044739Y0189650D02*
X0047608Y0189650D01*
X0047608Y0193954D01*
X0044739Y0193954D01*
X0046174Y0191802D02*
X0047608Y0191802D01*
X0049343Y0189650D02*
X0049343Y0193954D01*
X0052212Y0193954D02*
X0049343Y0189650D01*
X0052212Y0189650D02*
X0052212Y0193954D01*
X0053947Y0193236D02*
X0053947Y0190367D01*
X0054664Y0189650D01*
X0056099Y0189650D01*
X0056816Y0190367D01*
X0056816Y0193236D01*
X0056099Y0193954D01*
X0054664Y0193954D01*
X0053947Y0193236D01*
X0058551Y0189650D02*
X0061420Y0189650D01*
X0061420Y0193954D01*
X0063155Y0193236D02*
X0063872Y0193954D01*
X0065307Y0193954D01*
X0066024Y0193236D01*
X0066024Y0190367D01*
X0065307Y0189650D01*
X0063872Y0189650D01*
X0063155Y0190367D01*
X0072363Y0189650D02*
X0075232Y0189650D01*
X0075232Y0193954D01*
X0072363Y0193954D01*
X0073797Y0191802D02*
X0075232Y0191802D01*
X0076966Y0193954D02*
X0079836Y0193954D01*
X0081470Y0193954D02*
X0082905Y0193954D01*
X0082188Y0193954D02*
X0082188Y0189650D01*
X0082905Y0189650D02*
X0081470Y0189650D01*
X0078401Y0189650D02*
X0078401Y0193954D01*
X0084640Y0193954D02*
X0084640Y0189650D01*
X0087509Y0193954D01*
X0087509Y0189650D01*
X0089244Y0190367D02*
X0089244Y0191802D01*
X0090678Y0191802D01*
X0089244Y0193236D02*
X0089961Y0193954D01*
X0091395Y0193954D01*
X0092113Y0193236D01*
X0092113Y0190367D01*
X0091395Y0189650D01*
X0089961Y0189650D01*
X0089244Y0190367D01*
X0093848Y0190367D02*
X0093848Y0193236D01*
X0094565Y0193954D01*
X0095999Y0193954D01*
X0096717Y0193236D01*
X0096717Y0190367D01*
X0095999Y0189650D01*
X0094565Y0189650D01*
X0093848Y0190367D01*
D12*
X0092067Y0181800D03*
X0082067Y0181800D03*
X0082067Y0201800D03*
X0092067Y0201800D03*
X0092067Y0221800D03*
X0082067Y0221800D03*
X0072067Y0221800D03*
X0072067Y0201800D03*
X0072067Y0181800D03*
X0062067Y0181800D03*
X0062067Y0201800D03*
X0062067Y0221800D03*
X0052067Y0221800D03*
X0052067Y0201800D03*
X0052067Y0181800D03*
X0042067Y0181800D03*
X0032067Y0181800D03*
X0032067Y0201800D03*
X0042067Y0201800D03*
X0042067Y0221800D03*
X0032067Y0221800D03*
X0022067Y0221800D03*
X0022067Y0201800D03*
X0022067Y0181800D03*
X0012067Y0181800D03*
X0012067Y0201800D03*
X0012067Y0221800D03*
X0012067Y0161800D03*
X0012067Y0141800D03*
X0012067Y0121800D03*
X0022067Y0121800D03*
X0022067Y0141800D03*
X0022067Y0161800D03*
X0032067Y0161800D03*
X0042067Y0161800D03*
X0042067Y0141800D03*
X0032067Y0141800D03*
X0032067Y0121800D03*
X0042067Y0121800D03*
X0052067Y0121800D03*
X0052067Y0141800D03*
X0052067Y0161800D03*
X0062067Y0161800D03*
X0062067Y0141800D03*
X0062067Y0121800D03*
X0072067Y0121800D03*
X0072067Y0141800D03*
X0072067Y0161800D03*
X0082067Y0161800D03*
X0092067Y0161800D03*
X0092067Y0141800D03*
X0082067Y0141800D03*
X0082067Y0121800D03*
X0092067Y0121800D03*
X0102067Y0121800D03*
X0102067Y0141800D03*
X0102067Y0161800D03*
X0102067Y0181800D03*
X0102067Y0201800D03*
X0102067Y0221800D03*
X0102067Y0101800D03*
X0102067Y0081800D03*
X0092067Y0081800D03*
X0082067Y0081800D03*
X0082067Y0101800D03*
X0092067Y0101800D03*
X0072067Y0101800D03*
X0072067Y0081800D03*
X0062067Y0081800D03*
X0062067Y0101800D03*
X0052067Y0101800D03*
X0052067Y0081800D03*
X0042067Y0081800D03*
X0032067Y0081800D03*
X0032067Y0101800D03*
X0042067Y0101800D03*
X0022067Y0101800D03*
X0022067Y0081800D03*
X0012067Y0081800D03*
X0012067Y0101800D03*
D13*
X0089567Y0024300D03*
X0102067Y0011800D03*
D14*
X0012067Y0036800D03*
D15*
X0022067Y0036800D03*
X0032067Y0036800D03*
X0042067Y0036800D03*
X0052067Y0036800D03*
X0062067Y0036800D03*
X0072067Y0036800D03*
X0082067Y0036800D03*
X0092067Y0036800D03*
X0102067Y0036800D03*
X0102067Y0066800D03*
X0092067Y0066800D03*
X0082067Y0066800D03*
X0072067Y0066800D03*
X0062067Y0066800D03*
X0052067Y0066800D03*
X0042067Y0066800D03*
X0032067Y0066800D03*
X0022067Y0066800D03*
X0012067Y0066800D03*
D16*
X0023567Y0020639D02*
X0023567Y0012961D01*
X0042067Y0012961D02*
X0042067Y0020639D01*
X0060567Y0020639D02*
X0060567Y0012961D01*
D17*
X0060567Y0016800D02*
X0068067Y0024300D01*
X0089567Y0024300D01*
X0093267Y0030499D02*
X0107517Y0030499D01*
X0107517Y0032097D02*
X0104071Y0032097D01*
X0104024Y0032074D02*
X0104740Y0032438D01*
X0105389Y0032910D01*
X0105957Y0033478D01*
X0106429Y0034127D01*
X0106793Y0034842D01*
X0107041Y0035606D01*
X0107167Y0036399D01*
X0107167Y0036500D01*
X0102367Y0036500D01*
X0102367Y0037100D01*
X0107167Y0037100D01*
X0107167Y0037201D01*
X0107041Y0037994D01*
X0106793Y0038758D01*
X0106429Y0039473D01*
X0105957Y0040122D01*
X0105389Y0040690D01*
X0104740Y0041162D01*
X0104024Y0041526D01*
X0103261Y0041774D01*
X0102468Y0041900D01*
X0102367Y0041900D01*
X0102367Y0037100D01*
X0101767Y0037100D01*
X0101767Y0041900D01*
X0101665Y0041900D01*
X0100872Y0041774D01*
X0100109Y0041526D01*
X0099394Y0041162D01*
X0099330Y0041115D01*
X0099145Y0041300D01*
X0095052Y0041300D01*
X0093121Y0042100D01*
X0091012Y0042100D01*
X0089081Y0041300D01*
X0085052Y0041300D01*
X0083121Y0042100D01*
X0081012Y0042100D01*
X0079081Y0041300D01*
X0075052Y0041300D01*
X0073121Y0042100D01*
X0071012Y0042100D01*
X0069081Y0041300D01*
X0065052Y0041300D01*
X0063121Y0042100D01*
X0061012Y0042100D01*
X0059081Y0041300D01*
X0055052Y0041300D01*
X0053121Y0042100D01*
X0051012Y0042100D01*
X0049081Y0041300D01*
X0045052Y0041300D01*
X0043121Y0042100D01*
X0041012Y0042100D01*
X0039867Y0041625D01*
X0039867Y0042357D01*
X0039440Y0043386D01*
X0038653Y0044174D01*
X0021326Y0061500D01*
X0023121Y0061500D01*
X0025052Y0062300D01*
X0029081Y0062300D01*
X0031012Y0061500D01*
X0033121Y0061500D01*
X0035052Y0062300D01*
X0039081Y0062300D01*
X0041012Y0061500D01*
X0043121Y0061500D01*
X0045052Y0062300D01*
X0049081Y0062300D01*
X0051012Y0061500D01*
X0053121Y0061500D01*
X0055052Y0062300D01*
X0059081Y0062300D01*
X0061012Y0061500D01*
X0063121Y0061500D01*
X0065052Y0062300D01*
X0069081Y0062300D01*
X0071012Y0061500D01*
X0073121Y0061500D01*
X0075052Y0062300D01*
X0079081Y0062300D01*
X0081012Y0061500D01*
X0083121Y0061500D01*
X0085052Y0062300D01*
X0089081Y0062300D01*
X0091012Y0061500D01*
X0093121Y0061500D01*
X0095052Y0062300D01*
X0099081Y0062300D01*
X0101012Y0061500D01*
X0103121Y0061500D01*
X0105052Y0062300D01*
X0105395Y0062300D01*
X0106567Y0063472D01*
X0106567Y0063814D01*
X0107367Y0065746D01*
X0107367Y0067854D01*
X0106567Y0069786D01*
X0106567Y0070128D01*
X0105395Y0071300D01*
X0105052Y0071300D01*
X0103121Y0072100D01*
X0101012Y0072100D01*
X0099081Y0071300D01*
X0095052Y0071300D01*
X0093121Y0072100D01*
X0091012Y0072100D01*
X0089081Y0071300D01*
X0085052Y0071300D01*
X0083121Y0072100D01*
X0081012Y0072100D01*
X0079081Y0071300D01*
X0075052Y0071300D01*
X0073121Y0072100D01*
X0071012Y0072100D01*
X0069081Y0071300D01*
X0065052Y0071300D01*
X0063121Y0072100D01*
X0061012Y0072100D01*
X0059081Y0071300D01*
X0055052Y0071300D01*
X0053121Y0072100D01*
X0051012Y0072100D01*
X0049081Y0071300D01*
X0045052Y0071300D01*
X0043121Y0072100D01*
X0041012Y0072100D01*
X0039081Y0071300D01*
X0035052Y0071300D01*
X0033121Y0072100D01*
X0031012Y0072100D01*
X0029081Y0071300D01*
X0025052Y0071300D01*
X0023121Y0072100D01*
X0021012Y0072100D01*
X0019081Y0071300D01*
X0015052Y0071300D01*
X0013121Y0072100D01*
X0011012Y0072100D01*
X0009081Y0071300D01*
X0008738Y0071300D01*
X0007567Y0070128D01*
X0007567Y0069786D01*
X0006767Y0067854D01*
X0006767Y0065746D01*
X0007567Y0063814D01*
X0007567Y0063472D01*
X0008738Y0062300D01*
X0009081Y0062300D01*
X0011012Y0061500D01*
X0013121Y0061500D01*
X0013323Y0061584D01*
X0032807Y0042100D01*
X0031012Y0042100D01*
X0029081Y0041300D01*
X0025052Y0041300D01*
X0023121Y0042100D01*
X0021012Y0042100D01*
X0019081Y0041300D01*
X0016995Y0041300D01*
X0016195Y0042100D01*
X0007938Y0042100D01*
X0006767Y0040928D01*
X0006767Y0032672D01*
X0007938Y0031500D01*
X0016195Y0031500D01*
X0016995Y0032300D01*
X0019081Y0032300D01*
X0021012Y0031500D01*
X0023121Y0031500D01*
X0025052Y0032300D01*
X0029081Y0032300D01*
X0031012Y0031500D01*
X0033121Y0031500D01*
X0034267Y0031975D01*
X0034267Y0026243D01*
X0034693Y0025214D01*
X0036778Y0023128D01*
X0036228Y0021800D01*
X0036228Y0011800D01*
X0037117Y0009654D01*
X0038759Y0008012D01*
X0040905Y0007123D01*
X0043228Y0007123D01*
X0045374Y0008012D01*
X0047016Y0009654D01*
X0047905Y0011800D01*
X0047905Y0021800D01*
X0047016Y0023946D01*
X0045374Y0025588D01*
X0043228Y0026477D01*
X0041349Y0026477D01*
X0039867Y0027960D01*
X0039867Y0031975D01*
X0041012Y0031500D01*
X0043121Y0031500D01*
X0045052Y0032300D01*
X0049081Y0032300D01*
X0051012Y0031500D01*
X0053121Y0031500D01*
X0055052Y0032300D01*
X0059081Y0032300D01*
X0061012Y0031500D01*
X0063121Y0031500D01*
X0065052Y0032300D01*
X0069081Y0032300D01*
X0071012Y0031500D01*
X0073121Y0031500D01*
X0075052Y0032300D01*
X0079081Y0032300D01*
X0081012Y0031500D01*
X0083121Y0031500D01*
X0085052Y0032300D01*
X0089081Y0032300D01*
X0091012Y0031500D01*
X0093121Y0031500D01*
X0095052Y0032300D01*
X0099145Y0032300D01*
X0099330Y0032485D01*
X0099394Y0032438D01*
X0100109Y0032074D01*
X0100872Y0031826D01*
X0101665Y0031700D01*
X0101767Y0031700D01*
X0101767Y0036500D01*
X0102367Y0036500D01*
X0102367Y0031700D01*
X0102468Y0031700D01*
X0103261Y0031826D01*
X0104024Y0032074D01*
X0102367Y0032097D02*
X0101767Y0032097D01*
X0101767Y0033696D02*
X0102367Y0033696D01*
X0102367Y0035294D02*
X0101767Y0035294D01*
X0102367Y0036893D02*
X0107517Y0036893D01*
X0107517Y0038491D02*
X0106880Y0038491D01*
X0107517Y0040090D02*
X0105980Y0040090D01*
X0107517Y0041688D02*
X0103526Y0041688D01*
X0102367Y0041688D02*
X0101767Y0041688D01*
X0100608Y0041688D02*
X0094115Y0041688D01*
X0090019Y0041688D02*
X0084115Y0041688D01*
X0080019Y0041688D02*
X0074115Y0041688D01*
X0070019Y0041688D02*
X0064115Y0041688D01*
X0060019Y0041688D02*
X0054115Y0041688D01*
X0050019Y0041688D02*
X0044115Y0041688D01*
X0040019Y0041688D02*
X0039867Y0041688D01*
X0039481Y0043287D02*
X0107517Y0043287D01*
X0107517Y0044885D02*
X0037941Y0044885D01*
X0037067Y0041800D02*
X0037067Y0026800D01*
X0042067Y0021800D01*
X0042067Y0016800D01*
X0045096Y0025703D02*
X0057537Y0025703D01*
X0057259Y0025588D02*
X0055617Y0023946D01*
X0054728Y0021800D01*
X0054728Y0011800D01*
X0055617Y0009654D01*
X0057259Y0008012D01*
X0059405Y0007123D01*
X0061728Y0007123D01*
X0063874Y0008012D01*
X0065516Y0009654D01*
X0066405Y0011800D01*
X0066405Y0018679D01*
X0069226Y0021500D01*
X0082567Y0021500D01*
X0082567Y0021401D01*
X0086667Y0017300D01*
X0092466Y0017300D01*
X0096567Y0021401D01*
X0096567Y0027199D01*
X0092466Y0031300D01*
X0086667Y0031300D01*
X0082567Y0027199D01*
X0082567Y0027100D01*
X0067510Y0027100D01*
X0066481Y0026674D01*
X0064635Y0024828D01*
X0063874Y0025588D01*
X0061728Y0026477D01*
X0059405Y0026477D01*
X0057259Y0025588D01*
X0055776Y0024105D02*
X0046858Y0024105D01*
X0047613Y0022506D02*
X0055021Y0022506D01*
X0054728Y0020908D02*
X0047905Y0020908D01*
X0047905Y0019309D02*
X0054728Y0019309D01*
X0054728Y0017711D02*
X0047905Y0017711D01*
X0047905Y0016112D02*
X0054728Y0016112D01*
X0054728Y0014514D02*
X0047905Y0014514D01*
X0047905Y0012915D02*
X0054728Y0012915D01*
X0054928Y0011317D02*
X0047705Y0011317D01*
X0047043Y0009718D02*
X0055590Y0009718D01*
X0057151Y0008120D02*
X0045482Y0008120D01*
X0038651Y0008120D02*
X0026982Y0008120D01*
X0026874Y0008012D02*
X0028516Y0009654D01*
X0029405Y0011800D01*
X0029405Y0021800D01*
X0028516Y0023946D01*
X0026874Y0025588D01*
X0024728Y0026477D01*
X0022405Y0026477D01*
X0020259Y0025588D01*
X0018617Y0023946D01*
X0017728Y0021800D01*
X0017728Y0011800D01*
X0018617Y0009654D01*
X0020259Y0008012D01*
X0022405Y0007123D01*
X0024728Y0007123D01*
X0026874Y0008012D01*
X0028543Y0009718D02*
X0037090Y0009718D01*
X0036428Y0011317D02*
X0029205Y0011317D01*
X0029405Y0012915D02*
X0036228Y0012915D01*
X0036228Y0014514D02*
X0029405Y0014514D01*
X0029405Y0016112D02*
X0036228Y0016112D01*
X0036228Y0017711D02*
X0029405Y0017711D01*
X0029405Y0019309D02*
X0036228Y0019309D01*
X0036228Y0020908D02*
X0029405Y0020908D01*
X0029113Y0022506D02*
X0036521Y0022506D01*
X0035802Y0024105D02*
X0028358Y0024105D01*
X0026596Y0025703D02*
X0034490Y0025703D01*
X0034267Y0027302D02*
X0006567Y0027302D01*
X0006567Y0028900D02*
X0034267Y0028900D01*
X0034267Y0030499D02*
X0006567Y0030499D01*
X0006567Y0032097D02*
X0007341Y0032097D01*
X0006767Y0033696D02*
X0006567Y0033696D01*
X0006567Y0035294D02*
X0006767Y0035294D01*
X0006767Y0036893D02*
X0006567Y0036893D01*
X0006567Y0038491D02*
X0006767Y0038491D01*
X0006767Y0040090D02*
X0006567Y0040090D01*
X0006567Y0041688D02*
X0007527Y0041688D01*
X0006567Y0043287D02*
X0031620Y0043287D01*
X0030021Y0044885D02*
X0006567Y0044885D01*
X0006567Y0046484D02*
X0028423Y0046484D01*
X0026824Y0048082D02*
X0006567Y0048082D01*
X0006567Y0049681D02*
X0025226Y0049681D01*
X0023627Y0051279D02*
X0006567Y0051279D01*
X0006567Y0052878D02*
X0022029Y0052878D01*
X0020430Y0054476D02*
X0006567Y0054476D01*
X0006567Y0056075D02*
X0018832Y0056075D01*
X0017233Y0057673D02*
X0006567Y0057673D01*
X0006567Y0059272D02*
X0015635Y0059272D01*
X0014036Y0060870D02*
X0006567Y0060870D01*
X0006567Y0062469D02*
X0008569Y0062469D01*
X0007462Y0064068D02*
X0006567Y0064068D01*
X0006567Y0065666D02*
X0006800Y0065666D01*
X0006767Y0067265D02*
X0006567Y0067265D01*
X0006567Y0068863D02*
X0007185Y0068863D01*
X0006567Y0070462D02*
X0007900Y0070462D01*
X0006567Y0072060D02*
X0010916Y0072060D01*
X0013217Y0072060D02*
X0020916Y0072060D01*
X0023217Y0072060D02*
X0030916Y0072060D01*
X0033217Y0072060D02*
X0040916Y0072060D01*
X0043217Y0072060D02*
X0050916Y0072060D01*
X0053217Y0072060D02*
X0060916Y0072060D01*
X0063217Y0072060D02*
X0070916Y0072060D01*
X0073217Y0072060D02*
X0080916Y0072060D01*
X0083217Y0072060D02*
X0090916Y0072060D01*
X0093217Y0072060D02*
X0100916Y0072060D01*
X0103217Y0072060D02*
X0107517Y0072060D01*
X0107517Y0070462D02*
X0106234Y0070462D01*
X0106949Y0068863D02*
X0107517Y0068863D01*
X0107517Y0067265D02*
X0107367Y0067265D01*
X0107334Y0065666D02*
X0107517Y0065666D01*
X0107517Y0064068D02*
X0106671Y0064068D01*
X0107517Y0062469D02*
X0105564Y0062469D01*
X0107517Y0060870D02*
X0021956Y0060870D01*
X0023554Y0059272D02*
X0107517Y0059272D01*
X0107517Y0057673D02*
X0025153Y0057673D01*
X0026751Y0056075D02*
X0107517Y0056075D01*
X0107517Y0054476D02*
X0028350Y0054476D01*
X0029949Y0052878D02*
X0107517Y0052878D01*
X0107517Y0051279D02*
X0031547Y0051279D01*
X0033146Y0049681D02*
X0107517Y0049681D01*
X0107517Y0048082D02*
X0034744Y0048082D01*
X0036343Y0046484D02*
X0107517Y0046484D01*
X0102367Y0040090D02*
X0101767Y0040090D01*
X0101767Y0038491D02*
X0102367Y0038491D01*
X0100063Y0032097D02*
X0094563Y0032097D01*
X0094866Y0028900D02*
X0107517Y0028900D01*
X0107517Y0027302D02*
X0096464Y0027302D01*
X0096567Y0025703D02*
X0107517Y0025703D01*
X0107517Y0024105D02*
X0096567Y0024105D01*
X0096567Y0022506D02*
X0107517Y0022506D01*
X0107517Y0020908D02*
X0096074Y0020908D01*
X0094475Y0019309D02*
X0107517Y0019309D01*
X0107517Y0017711D02*
X0105773Y0017711D01*
X0104883Y0018600D02*
X0102642Y0018600D01*
X0102642Y0012375D01*
X0101492Y0012375D01*
X0101492Y0018600D01*
X0099250Y0018600D01*
X0095267Y0014617D01*
X0095267Y0012375D01*
X0101492Y0012375D01*
X0101492Y0011225D01*
X0095267Y0011225D01*
X0095267Y0008983D01*
X0097950Y0006300D01*
X0009567Y0006300D01*
X0008981Y0006358D01*
X0007900Y0006806D01*
X0007072Y0007633D01*
X0006624Y0008715D01*
X0006567Y0009300D01*
X0006567Y0229261D01*
X0006624Y0229846D01*
X0007072Y0230927D01*
X0007900Y0231755D01*
X0008981Y0232203D01*
X0009567Y0232261D01*
X0104517Y0232261D01*
X0105103Y0232203D01*
X0106184Y0231755D01*
X0107012Y0230927D01*
X0107460Y0229846D01*
X0107517Y0229261D01*
X0107517Y0015966D01*
X0104883Y0018600D01*
X0102642Y0017711D02*
X0101492Y0017711D01*
X0101492Y0016112D02*
X0102642Y0016112D01*
X0102642Y0014514D02*
X0101492Y0014514D01*
X0101492Y0012915D02*
X0102642Y0012915D01*
X0101492Y0011317D02*
X0066205Y0011317D01*
X0066405Y0012915D02*
X0095267Y0012915D01*
X0095267Y0014514D02*
X0066405Y0014514D01*
X0066405Y0016112D02*
X0096762Y0016112D01*
X0098361Y0017711D02*
X0092877Y0017711D01*
X0095267Y0009718D02*
X0065543Y0009718D01*
X0063982Y0008120D02*
X0096130Y0008120D01*
X0097729Y0006521D02*
X0008587Y0006521D01*
X0006871Y0008120D02*
X0020151Y0008120D01*
X0018590Y0009718D02*
X0006567Y0009718D01*
X0006567Y0011317D02*
X0017928Y0011317D01*
X0017728Y0012915D02*
X0006567Y0012915D01*
X0006567Y0014514D02*
X0017728Y0014514D01*
X0017728Y0016112D02*
X0006567Y0016112D01*
X0006567Y0017711D02*
X0017728Y0017711D01*
X0017728Y0019309D02*
X0006567Y0019309D01*
X0006567Y0020908D02*
X0017728Y0020908D01*
X0018021Y0022506D02*
X0006567Y0022506D01*
X0006567Y0024105D02*
X0018776Y0024105D01*
X0020537Y0025703D02*
X0006567Y0025703D01*
X0016792Y0032097D02*
X0019570Y0032097D01*
X0024563Y0032097D02*
X0029570Y0032097D01*
X0030019Y0041688D02*
X0024115Y0041688D01*
X0020019Y0041688D02*
X0016607Y0041688D01*
X0037067Y0041800D02*
X0012067Y0066800D01*
X0006567Y0073659D02*
X0107517Y0073659D01*
X0107517Y0075257D02*
X0006567Y0075257D01*
X0006567Y0076856D02*
X0107517Y0076856D01*
X0107517Y0078454D02*
X0105226Y0078454D01*
X0103972Y0077200D02*
X0106667Y0079895D01*
X0106667Y0083705D01*
X0103972Y0086400D01*
X0100161Y0086400D01*
X0097467Y0083705D01*
X0097467Y0079895D01*
X0100161Y0077200D01*
X0103972Y0077200D01*
X0106667Y0080053D02*
X0107517Y0080053D01*
X0107517Y0081651D02*
X0106667Y0081651D01*
X0106667Y0083250D02*
X0107517Y0083250D01*
X0107517Y0084848D02*
X0105524Y0084848D01*
X0107517Y0086447D02*
X0091380Y0086447D01*
X0091426Y0086400D02*
X0086026Y0091800D01*
X0091426Y0097200D01*
X0093972Y0097200D01*
X0096667Y0099895D01*
X0096667Y0103705D01*
X0093972Y0106400D01*
X0090161Y0106400D01*
X0087467Y0103705D01*
X0087467Y0101160D01*
X0086667Y0100360D01*
X0086667Y0103705D01*
X0083972Y0106400D01*
X0080161Y0106400D01*
X0077467Y0103705D01*
X0077467Y0100360D01*
X0076667Y0101160D01*
X0076667Y0103705D01*
X0073972Y0106400D01*
X0070161Y0106400D01*
X0067467Y0103705D01*
X0067467Y0099895D01*
X0070161Y0097200D01*
X0072707Y0097200D01*
X0075307Y0094600D01*
X0048826Y0094600D01*
X0051426Y0097200D01*
X0053972Y0097200D01*
X0056667Y0099895D01*
X0056667Y0103705D01*
X0053972Y0106400D01*
X0050161Y0106400D01*
X0047467Y0103705D01*
X0047467Y0101160D01*
X0046667Y0100360D01*
X0046667Y0103705D01*
X0043972Y0106400D01*
X0040161Y0106400D01*
X0037467Y0103705D01*
X0037467Y0099895D01*
X0040161Y0097200D01*
X0043507Y0097200D01*
X0040907Y0094600D01*
X0028826Y0094600D01*
X0031426Y0097200D01*
X0033972Y0097200D01*
X0036667Y0099895D01*
X0036667Y0103705D01*
X0033972Y0106400D01*
X0030161Y0106400D01*
X0027467Y0103705D01*
X0027467Y0101160D01*
X0026667Y0100360D01*
X0026667Y0103705D01*
X0023972Y0106400D01*
X0020161Y0106400D01*
X0017467Y0103705D01*
X0017467Y0100360D01*
X0016667Y0101160D01*
X0016667Y0103705D01*
X0013972Y0106400D01*
X0010161Y0106400D01*
X0007467Y0103705D01*
X0007467Y0099895D01*
X0010161Y0097200D01*
X0012707Y0097200D01*
X0018107Y0091800D01*
X0012707Y0086400D01*
X0010161Y0086400D01*
X0007467Y0083705D01*
X0007467Y0079895D01*
X0010161Y0077200D01*
X0013972Y0077200D01*
X0016667Y0079895D01*
X0016667Y0082440D01*
X0017467Y0083240D01*
X0017467Y0079895D01*
X0020161Y0077200D01*
X0023972Y0077200D01*
X0026667Y0079895D01*
X0026667Y0083240D01*
X0027467Y0082440D01*
X0027467Y0079895D01*
X0030161Y0077200D01*
X0033972Y0077200D01*
X0036667Y0079895D01*
X0036667Y0083705D01*
X0033972Y0086400D01*
X0031426Y0086400D01*
X0028826Y0089000D01*
X0055307Y0089000D01*
X0052707Y0086400D01*
X0050161Y0086400D01*
X0047467Y0083705D01*
X0047467Y0079895D01*
X0050161Y0077200D01*
X0053972Y0077200D01*
X0056667Y0079895D01*
X0056667Y0082440D01*
X0057467Y0083240D01*
X0057467Y0079895D01*
X0060161Y0077200D01*
X0063972Y0077200D01*
X0066667Y0079895D01*
X0066667Y0083705D01*
X0063972Y0086400D01*
X0060626Y0086400D01*
X0063226Y0089000D01*
X0075307Y0089000D01*
X0072707Y0086400D01*
X0070161Y0086400D01*
X0067467Y0083705D01*
X0067467Y0079895D01*
X0070161Y0077200D01*
X0073972Y0077200D01*
X0076667Y0079895D01*
X0076667Y0082440D01*
X0077467Y0083240D01*
X0077467Y0079895D01*
X0080161Y0077200D01*
X0083972Y0077200D01*
X0086667Y0079895D01*
X0086667Y0083240D01*
X0087467Y0082440D01*
X0087467Y0079895D01*
X0090161Y0077200D01*
X0093972Y0077200D01*
X0096667Y0079895D01*
X0096667Y0083705D01*
X0093972Y0086400D01*
X0091426Y0086400D01*
X0089781Y0088045D02*
X0107517Y0088045D01*
X0107517Y0089644D02*
X0088183Y0089644D01*
X0086584Y0091242D02*
X0107517Y0091242D01*
X0107517Y0092841D02*
X0087067Y0092841D01*
X0088666Y0094439D02*
X0107517Y0094439D01*
X0107517Y0096038D02*
X0090264Y0096038D01*
X0092067Y0101800D02*
X0082067Y0091800D01*
X0072067Y0101800D01*
X0074743Y0105629D02*
X0079390Y0105629D01*
X0077792Y0104030D02*
X0076342Y0104030D01*
X0076667Y0102432D02*
X0077467Y0102432D01*
X0077467Y0100833D02*
X0076993Y0100833D01*
X0073869Y0096038D02*
X0050264Y0096038D01*
X0052067Y0101800D02*
X0042067Y0091800D01*
X0062067Y0091800D01*
X0052067Y0081800D01*
X0052754Y0086447D02*
X0031380Y0086447D01*
X0029781Y0088045D02*
X0054352Y0088045D01*
X0056667Y0081651D02*
X0057467Y0081651D01*
X0057467Y0080053D02*
X0056667Y0080053D01*
X0055226Y0078454D02*
X0058907Y0078454D01*
X0060673Y0086447D02*
X0072754Y0086447D01*
X0074352Y0088045D02*
X0062272Y0088045D01*
X0062067Y0091800D02*
X0082067Y0091800D01*
X0072067Y0081800D01*
X0075226Y0078454D02*
X0078907Y0078454D01*
X0077467Y0080053D02*
X0076667Y0080053D01*
X0076667Y0081651D02*
X0077467Y0081651D01*
X0082067Y0091800D02*
X0092067Y0081800D01*
X0088907Y0078454D02*
X0085226Y0078454D01*
X0086667Y0080053D02*
X0087467Y0080053D01*
X0087467Y0081651D02*
X0086667Y0081651D01*
X0094408Y0097636D02*
X0099725Y0097636D01*
X0100161Y0097200D02*
X0103972Y0097200D01*
X0106667Y0099895D01*
X0106667Y0103705D01*
X0103972Y0106400D01*
X0100161Y0106400D01*
X0097467Y0103705D01*
X0097467Y0099895D01*
X0100161Y0097200D01*
X0098127Y0099235D02*
X0096007Y0099235D01*
X0096667Y0100833D02*
X0097467Y0100833D01*
X0097467Y0102432D02*
X0096667Y0102432D01*
X0096342Y0104030D02*
X0097792Y0104030D01*
X0099390Y0105629D02*
X0094743Y0105629D01*
X0089390Y0105629D02*
X0084743Y0105629D01*
X0086342Y0104030D02*
X0087792Y0104030D01*
X0087467Y0102432D02*
X0086667Y0102432D01*
X0086667Y0100833D02*
X0087140Y0100833D01*
X0090161Y0117200D02*
X0093972Y0117200D01*
X0096667Y0119895D01*
X0096667Y0123705D01*
X0093972Y0126400D01*
X0091426Y0126400D01*
X0086026Y0131800D01*
X0091426Y0137200D01*
X0093972Y0137200D01*
X0096667Y0139895D01*
X0096667Y0143705D01*
X0093972Y0146400D01*
X0090161Y0146400D01*
X0087467Y0143705D01*
X0087467Y0141160D01*
X0086667Y0140360D01*
X0086667Y0143705D01*
X0083972Y0146400D01*
X0080161Y0146400D01*
X0077467Y0143705D01*
X0077467Y0140360D01*
X0076667Y0141160D01*
X0076667Y0143705D01*
X0073972Y0146400D01*
X0070161Y0146400D01*
X0067467Y0143705D01*
X0067467Y0139895D01*
X0070161Y0137200D01*
X0072707Y0137200D01*
X0075307Y0134600D01*
X0063226Y0134600D01*
X0060626Y0137200D01*
X0063972Y0137200D01*
X0066667Y0139895D01*
X0066667Y0143705D01*
X0063972Y0146400D01*
X0060161Y0146400D01*
X0057467Y0143705D01*
X0057467Y0140360D01*
X0056667Y0141160D01*
X0056667Y0143705D01*
X0053972Y0146400D01*
X0050161Y0146400D01*
X0047467Y0143705D01*
X0047467Y0139895D01*
X0050161Y0137200D01*
X0052707Y0137200D01*
X0055307Y0134600D01*
X0028826Y0134600D01*
X0031426Y0137200D01*
X0033972Y0137200D01*
X0036667Y0139895D01*
X0036667Y0143705D01*
X0033972Y0146400D01*
X0030161Y0146400D01*
X0027467Y0143705D01*
X0027467Y0141160D01*
X0026667Y0140360D01*
X0026667Y0143705D01*
X0023972Y0146400D01*
X0020161Y0146400D01*
X0017467Y0143705D01*
X0017467Y0140360D01*
X0016667Y0141160D01*
X0016667Y0143705D01*
X0013972Y0146400D01*
X0010161Y0146400D01*
X0007467Y0143705D01*
X0007467Y0139895D01*
X0010161Y0137200D01*
X0012707Y0137200D01*
X0018107Y0131800D01*
X0012707Y0126400D01*
X0010161Y0126400D01*
X0007467Y0123705D01*
X0007467Y0119895D01*
X0010161Y0117200D01*
X0013972Y0117200D01*
X0016667Y0119895D01*
X0016667Y0122440D01*
X0017467Y0123240D01*
X0017467Y0119895D01*
X0020161Y0117200D01*
X0023972Y0117200D01*
X0026667Y0119895D01*
X0026667Y0123240D01*
X0027467Y0122440D01*
X0027467Y0119895D01*
X0030161Y0117200D01*
X0033972Y0117200D01*
X0036667Y0119895D01*
X0036667Y0123705D01*
X0033972Y0126400D01*
X0031426Y0126400D01*
X0028826Y0129000D01*
X0040907Y0129000D01*
X0043507Y0126400D01*
X0040161Y0126400D01*
X0037467Y0123705D01*
X0037467Y0119895D01*
X0040161Y0117200D01*
X0043972Y0117200D01*
X0046667Y0119895D01*
X0046667Y0123240D01*
X0047467Y0122440D01*
X0047467Y0119895D01*
X0050161Y0117200D01*
X0053972Y0117200D01*
X0056667Y0119895D01*
X0056667Y0123705D01*
X0053972Y0126400D01*
X0051426Y0126400D01*
X0048826Y0129000D01*
X0075307Y0129000D01*
X0072707Y0126400D01*
X0070161Y0126400D01*
X0067467Y0123705D01*
X0067467Y0119895D01*
X0070161Y0117200D01*
X0073972Y0117200D01*
X0076667Y0119895D01*
X0076667Y0122440D01*
X0077467Y0123240D01*
X0077467Y0119895D01*
X0080161Y0117200D01*
X0083972Y0117200D01*
X0086667Y0119895D01*
X0086667Y0123240D01*
X0087467Y0122440D01*
X0087467Y0119895D01*
X0090161Y0117200D01*
X0088944Y0118417D02*
X0085189Y0118417D01*
X0086667Y0120015D02*
X0087467Y0120015D01*
X0087467Y0121614D02*
X0086667Y0121614D01*
X0086667Y0123212D02*
X0086694Y0123212D01*
X0089818Y0128008D02*
X0107517Y0128008D01*
X0107517Y0129606D02*
X0088220Y0129606D01*
X0086621Y0131205D02*
X0107517Y0131205D01*
X0107517Y0132803D02*
X0087030Y0132803D01*
X0088628Y0134402D02*
X0107517Y0134402D01*
X0107517Y0136001D02*
X0090227Y0136001D01*
X0094371Y0137599D02*
X0099762Y0137599D01*
X0100161Y0137200D02*
X0103972Y0137200D01*
X0106667Y0139895D01*
X0106667Y0143705D01*
X0103972Y0146400D01*
X0100161Y0146400D01*
X0097467Y0143705D01*
X0097467Y0139895D01*
X0100161Y0137200D01*
X0098164Y0139198D02*
X0095970Y0139198D01*
X0096667Y0140796D02*
X0097467Y0140796D01*
X0097467Y0142395D02*
X0096667Y0142395D01*
X0096379Y0143993D02*
X0097754Y0143993D01*
X0099353Y0145592D02*
X0094780Y0145592D01*
X0092067Y0141800D02*
X0082067Y0131800D01*
X0072067Y0121800D01*
X0072716Y0126409D02*
X0051417Y0126409D01*
X0052067Y0121800D02*
X0042067Y0131800D01*
X0062067Y0131800D01*
X0052067Y0141800D01*
X0049353Y0145592D02*
X0044780Y0145592D01*
X0043972Y0146400D02*
X0046667Y0143705D01*
X0046667Y0139895D01*
X0043972Y0137200D01*
X0040161Y0137200D01*
X0037467Y0139895D01*
X0037467Y0143705D01*
X0040161Y0146400D01*
X0043972Y0146400D01*
X0046379Y0143993D02*
X0047754Y0143993D01*
X0047467Y0142395D02*
X0046667Y0142395D01*
X0046667Y0140796D02*
X0047467Y0140796D01*
X0048164Y0139198D02*
X0045970Y0139198D01*
X0044371Y0137599D02*
X0049762Y0137599D01*
X0053906Y0136001D02*
X0030227Y0136001D01*
X0027103Y0140796D02*
X0026667Y0140796D01*
X0026667Y0142395D02*
X0027467Y0142395D01*
X0027754Y0143993D02*
X0026379Y0143993D01*
X0024780Y0145592D02*
X0029353Y0145592D01*
X0032067Y0141800D02*
X0022067Y0131800D01*
X0032067Y0121800D01*
X0031417Y0126409D02*
X0043497Y0126409D01*
X0041899Y0128008D02*
X0029818Y0128008D01*
X0026694Y0123212D02*
X0026667Y0123212D01*
X0026667Y0121614D02*
X0027467Y0121614D01*
X0027467Y0120015D02*
X0026667Y0120015D01*
X0025189Y0118417D02*
X0028944Y0118417D01*
X0035189Y0118417D02*
X0038944Y0118417D01*
X0037467Y0120015D02*
X0036667Y0120015D01*
X0036667Y0121614D02*
X0037467Y0121614D01*
X0037467Y0123212D02*
X0036667Y0123212D01*
X0035561Y0124811D02*
X0038572Y0124811D01*
X0042067Y0131800D02*
X0022067Y0131800D01*
X0012067Y0121800D01*
X0012716Y0126409D02*
X0006567Y0126409D01*
X0006567Y0124811D02*
X0008572Y0124811D01*
X0007467Y0123212D02*
X0006567Y0123212D01*
X0006567Y0121614D02*
X0007467Y0121614D01*
X0007467Y0120015D02*
X0006567Y0120015D01*
X0006567Y0118417D02*
X0008944Y0118417D01*
X0006567Y0116818D02*
X0107517Y0116818D01*
X0107517Y0115220D02*
X0006567Y0115220D01*
X0006567Y0113621D02*
X0107517Y0113621D01*
X0107517Y0112023D02*
X0006567Y0112023D01*
X0006567Y0110424D02*
X0107517Y0110424D01*
X0107517Y0108826D02*
X0006567Y0108826D01*
X0006567Y0107227D02*
X0107517Y0107227D01*
X0107517Y0105629D02*
X0104743Y0105629D01*
X0106342Y0104030D02*
X0107517Y0104030D01*
X0107517Y0102432D02*
X0106667Y0102432D01*
X0106667Y0100833D02*
X0107517Y0100833D01*
X0107517Y0099235D02*
X0106007Y0099235D01*
X0107517Y0097636D02*
X0104408Y0097636D01*
X0098609Y0084848D02*
X0095524Y0084848D01*
X0096667Y0083250D02*
X0097467Y0083250D01*
X0097467Y0081651D02*
X0096667Y0081651D01*
X0096667Y0080053D02*
X0097467Y0080053D01*
X0098907Y0078454D02*
X0095226Y0078454D01*
X0100161Y0117200D02*
X0103972Y0117200D01*
X0106667Y0119895D01*
X0106667Y0123705D01*
X0103972Y0126400D01*
X0100161Y0126400D01*
X0097467Y0123705D01*
X0097467Y0119895D01*
X0100161Y0117200D01*
X0098944Y0118417D02*
X0095189Y0118417D01*
X0096667Y0120015D02*
X0097467Y0120015D01*
X0097467Y0121614D02*
X0096667Y0121614D01*
X0096667Y0123212D02*
X0097467Y0123212D01*
X0098572Y0124811D02*
X0095561Y0124811D01*
X0091417Y0126409D02*
X0107517Y0126409D01*
X0107517Y0124811D02*
X0105561Y0124811D01*
X0106667Y0123212D02*
X0107517Y0123212D01*
X0107517Y0121614D02*
X0106667Y0121614D01*
X0106667Y0120015D02*
X0107517Y0120015D01*
X0107517Y0118417D02*
X0105189Y0118417D01*
X0104371Y0137599D02*
X0107517Y0137599D01*
X0107517Y0139198D02*
X0105970Y0139198D01*
X0106667Y0140796D02*
X0107517Y0140796D01*
X0107517Y0142395D02*
X0106667Y0142395D01*
X0106379Y0143993D02*
X0107517Y0143993D01*
X0107517Y0145592D02*
X0104780Y0145592D01*
X0107517Y0147190D02*
X0006567Y0147190D01*
X0006567Y0145592D02*
X0009353Y0145592D01*
X0007754Y0143993D02*
X0006567Y0143993D01*
X0006567Y0142395D02*
X0007467Y0142395D01*
X0007467Y0140796D02*
X0006567Y0140796D01*
X0006567Y0139198D02*
X0008164Y0139198D01*
X0006567Y0137599D02*
X0009762Y0137599D01*
X0012067Y0141800D02*
X0022067Y0131800D01*
X0017512Y0131205D02*
X0006567Y0131205D01*
X0006567Y0132803D02*
X0017103Y0132803D01*
X0015505Y0134402D02*
X0006567Y0134402D01*
X0006567Y0136001D02*
X0013906Y0136001D01*
X0015913Y0129606D02*
X0006567Y0129606D01*
X0006567Y0128008D02*
X0014315Y0128008D01*
X0017439Y0123212D02*
X0017467Y0123212D01*
X0017467Y0121614D02*
X0016667Y0121614D01*
X0016667Y0120015D02*
X0017467Y0120015D01*
X0018944Y0118417D02*
X0015189Y0118417D01*
X0014743Y0105629D02*
X0019390Y0105629D01*
X0017792Y0104030D02*
X0016342Y0104030D01*
X0016667Y0102432D02*
X0017467Y0102432D01*
X0017467Y0100833D02*
X0016993Y0100833D01*
X0013869Y0096038D02*
X0006567Y0096038D01*
X0006567Y0097636D02*
X0009725Y0097636D01*
X0008127Y0099235D02*
X0006567Y0099235D01*
X0006567Y0100833D02*
X0007467Y0100833D01*
X0007467Y0102432D02*
X0006567Y0102432D01*
X0006567Y0104030D02*
X0007792Y0104030D01*
X0006567Y0105629D02*
X0009390Y0105629D01*
X0012067Y0101800D02*
X0022067Y0091800D01*
X0032067Y0081800D01*
X0035226Y0078454D02*
X0038907Y0078454D01*
X0040161Y0077200D02*
X0043972Y0077200D01*
X0046667Y0079895D01*
X0046667Y0083705D01*
X0043972Y0086400D01*
X0040161Y0086400D01*
X0037467Y0083705D01*
X0037467Y0079895D01*
X0040161Y0077200D01*
X0037467Y0080053D02*
X0036667Y0080053D01*
X0036667Y0081651D02*
X0037467Y0081651D01*
X0037467Y0083250D02*
X0036667Y0083250D01*
X0035524Y0084848D02*
X0038609Y0084848D01*
X0042067Y0091800D02*
X0022067Y0091800D01*
X0032067Y0101800D01*
X0034743Y0105629D02*
X0039390Y0105629D01*
X0037792Y0104030D02*
X0036342Y0104030D01*
X0036667Y0102432D02*
X0037467Y0102432D01*
X0037467Y0100833D02*
X0036667Y0100833D01*
X0036007Y0099235D02*
X0038127Y0099235D01*
X0039725Y0097636D02*
X0034408Y0097636D01*
X0030264Y0096038D02*
X0042345Y0096038D01*
X0046667Y0100833D02*
X0047140Y0100833D01*
X0047467Y0102432D02*
X0046667Y0102432D01*
X0046342Y0104030D02*
X0047792Y0104030D01*
X0049390Y0105629D02*
X0044743Y0105629D01*
X0045189Y0118417D02*
X0048944Y0118417D01*
X0047467Y0120015D02*
X0046667Y0120015D01*
X0046667Y0121614D02*
X0047467Y0121614D01*
X0046694Y0123212D02*
X0046667Y0123212D01*
X0049818Y0128008D02*
X0074315Y0128008D01*
X0077439Y0123212D02*
X0077467Y0123212D01*
X0077467Y0121614D02*
X0076667Y0121614D01*
X0076667Y0120015D02*
X0077467Y0120015D01*
X0078944Y0118417D02*
X0075189Y0118417D01*
X0068944Y0118417D02*
X0065189Y0118417D01*
X0063972Y0117200D02*
X0066667Y0119895D01*
X0066667Y0123705D01*
X0063972Y0126400D01*
X0060161Y0126400D01*
X0057467Y0123705D01*
X0057467Y0119895D01*
X0060161Y0117200D01*
X0063972Y0117200D01*
X0066667Y0120015D02*
X0067467Y0120015D01*
X0067467Y0121614D02*
X0066667Y0121614D01*
X0066667Y0123212D02*
X0067467Y0123212D01*
X0068572Y0124811D02*
X0065561Y0124811D01*
X0062067Y0131800D02*
X0082067Y0131800D01*
X0072067Y0141800D01*
X0074780Y0145592D02*
X0079353Y0145592D01*
X0077754Y0143993D02*
X0076379Y0143993D01*
X0076667Y0142395D02*
X0077467Y0142395D01*
X0077467Y0140796D02*
X0077030Y0140796D01*
X0073906Y0136001D02*
X0061826Y0136001D01*
X0064371Y0137599D02*
X0069762Y0137599D01*
X0068164Y0139198D02*
X0065970Y0139198D01*
X0066667Y0140796D02*
X0067467Y0140796D01*
X0067467Y0142395D02*
X0066667Y0142395D01*
X0066379Y0143993D02*
X0067754Y0143993D01*
X0069353Y0145592D02*
X0064780Y0145592D01*
X0059353Y0145592D02*
X0054780Y0145592D01*
X0056379Y0143993D02*
X0057754Y0143993D01*
X0057467Y0142395D02*
X0056667Y0142395D01*
X0057030Y0140796D02*
X0057467Y0140796D01*
X0060161Y0157200D02*
X0063972Y0157200D01*
X0066667Y0159895D01*
X0066667Y0163705D01*
X0063972Y0166400D01*
X0060626Y0166400D01*
X0063226Y0169000D01*
X0075307Y0169000D01*
X0072707Y0166400D01*
X0070161Y0166400D01*
X0067467Y0163705D01*
X0067467Y0159895D01*
X0070161Y0157200D01*
X0073972Y0157200D01*
X0076667Y0159895D01*
X0076667Y0162440D01*
X0077467Y0163240D01*
X0077467Y0159895D01*
X0080161Y0157200D01*
X0083972Y0157200D01*
X0086667Y0159895D01*
X0086667Y0163240D01*
X0087467Y0162440D01*
X0087467Y0159895D01*
X0090161Y0157200D01*
X0093972Y0157200D01*
X0096667Y0159895D01*
X0096667Y0163705D01*
X0093972Y0166400D01*
X0091426Y0166400D01*
X0086026Y0171800D01*
X0091426Y0177200D01*
X0093972Y0177200D01*
X0096667Y0179895D01*
X0096667Y0183705D01*
X0093972Y0186400D01*
X0090161Y0186400D01*
X0087467Y0183705D01*
X0087467Y0181160D01*
X0086667Y0180360D01*
X0086667Y0183705D01*
X0083972Y0186400D01*
X0080161Y0186400D01*
X0077467Y0183705D01*
X0077467Y0180360D01*
X0076667Y0181160D01*
X0076667Y0183705D01*
X0073972Y0186400D01*
X0070161Y0186400D01*
X0067467Y0183705D01*
X0067467Y0179895D01*
X0070161Y0177200D01*
X0072707Y0177200D01*
X0075307Y0174600D01*
X0048826Y0174600D01*
X0051426Y0177200D01*
X0053972Y0177200D01*
X0056667Y0179895D01*
X0056667Y0183705D01*
X0053972Y0186400D01*
X0050161Y0186400D01*
X0047467Y0183705D01*
X0047467Y0181160D01*
X0046667Y0180360D01*
X0046667Y0183705D01*
X0043972Y0186400D01*
X0040161Y0186400D01*
X0037467Y0183705D01*
X0037467Y0179895D01*
X0040161Y0177200D01*
X0043507Y0177200D01*
X0040907Y0174600D01*
X0028826Y0174600D01*
X0031426Y0177200D01*
X0033972Y0177200D01*
X0036667Y0179895D01*
X0036667Y0183705D01*
X0033972Y0186400D01*
X0030161Y0186400D01*
X0027467Y0183705D01*
X0027467Y0181160D01*
X0026667Y0180360D01*
X0026667Y0183705D01*
X0023972Y0186400D01*
X0020161Y0186400D01*
X0017467Y0183705D01*
X0017467Y0180360D01*
X0016667Y0181160D01*
X0016667Y0183705D01*
X0013972Y0186400D01*
X0010161Y0186400D01*
X0007467Y0183705D01*
X0007467Y0179895D01*
X0010161Y0177200D01*
X0012707Y0177200D01*
X0018107Y0171800D01*
X0012707Y0166400D01*
X0010161Y0166400D01*
X0007467Y0163705D01*
X0007467Y0159895D01*
X0010161Y0157200D01*
X0013972Y0157200D01*
X0016667Y0159895D01*
X0016667Y0162440D01*
X0017467Y0163240D01*
X0017467Y0159895D01*
X0020161Y0157200D01*
X0023972Y0157200D01*
X0026667Y0159895D01*
X0026667Y0163240D01*
X0027467Y0162440D01*
X0027467Y0159895D01*
X0030161Y0157200D01*
X0033972Y0157200D01*
X0036667Y0159895D01*
X0036667Y0163705D01*
X0033972Y0166400D01*
X0031426Y0166400D01*
X0028826Y0169000D01*
X0055307Y0169000D01*
X0052707Y0166400D01*
X0050161Y0166400D01*
X0047467Y0163705D01*
X0047467Y0159895D01*
X0050161Y0157200D01*
X0053972Y0157200D01*
X0056667Y0159895D01*
X0056667Y0162440D01*
X0057467Y0163240D01*
X0057467Y0159895D01*
X0060161Y0157200D01*
X0058982Y0158380D02*
X0055152Y0158380D01*
X0056667Y0159978D02*
X0057467Y0159978D01*
X0057467Y0161577D02*
X0056667Y0161577D01*
X0057402Y0163175D02*
X0057467Y0163175D01*
X0054278Y0167971D02*
X0029856Y0167971D01*
X0034000Y0166372D02*
X0040134Y0166372D01*
X0040161Y0166400D02*
X0037467Y0163705D01*
X0037467Y0159895D01*
X0040161Y0157200D01*
X0043972Y0157200D01*
X0046667Y0159895D01*
X0046667Y0163705D01*
X0043972Y0166400D01*
X0040161Y0166400D01*
X0038535Y0164774D02*
X0035598Y0164774D01*
X0036667Y0163175D02*
X0037467Y0163175D01*
X0037467Y0161577D02*
X0036667Y0161577D01*
X0036667Y0159978D02*
X0037467Y0159978D01*
X0038982Y0158380D02*
X0035152Y0158380D01*
X0032067Y0161800D02*
X0022067Y0171800D01*
X0032067Y0181800D01*
X0034818Y0185554D02*
X0039316Y0185554D01*
X0039374Y0187300D02*
X0040750Y0188677D01*
X0040750Y0194927D01*
X0039374Y0196304D01*
X0035275Y0196304D01*
X0035022Y0196051D01*
X0034770Y0196304D01*
X0028219Y0196304D01*
X0027758Y0195842D01*
X0027297Y0196304D01*
X0025350Y0196304D01*
X0023973Y0194927D01*
X0023973Y0192717D01*
X0022898Y0192717D01*
X0021521Y0191341D01*
X0021521Y0188677D01*
X0022898Y0187300D01*
X0025562Y0187300D01*
X0026173Y0187911D01*
X0026784Y0187300D01*
X0028731Y0187300D01*
X0029343Y0187911D01*
X0029954Y0187300D01*
X0036505Y0187300D01*
X0036966Y0187761D01*
X0037427Y0187300D01*
X0039374Y0187300D01*
X0040750Y0188751D02*
X0042389Y0188751D01*
X0042389Y0188677D02*
X0043766Y0187300D01*
X0048631Y0187300D01*
X0048849Y0187155D01*
X0049576Y0187300D01*
X0050316Y0187300D01*
X0050502Y0187485D01*
X0050758Y0187537D01*
X0050856Y0187683D01*
X0051239Y0187300D01*
X0053185Y0187300D01*
X0053438Y0187553D01*
X0053691Y0187300D01*
X0057072Y0187300D01*
X0057325Y0187553D01*
X0057577Y0187300D01*
X0062393Y0187300D01*
X0062646Y0187553D01*
X0062899Y0187300D01*
X0066280Y0187300D01*
X0067657Y0188677D01*
X0068374Y0189394D01*
X0068374Y0194210D01*
X0066997Y0195586D01*
X0066280Y0196304D01*
X0062899Y0196304D01*
X0062646Y0196051D01*
X0062393Y0196304D01*
X0060446Y0196304D01*
X0059070Y0194927D01*
X0059070Y0194306D01*
X0057789Y0195586D01*
X0057072Y0196304D01*
X0055125Y0196304D01*
X0053691Y0196304D01*
X0053438Y0196051D01*
X0053185Y0196304D01*
X0052924Y0196304D01*
X0052706Y0196449D01*
X0051979Y0196304D01*
X0051239Y0196304D01*
X0051053Y0196118D01*
X0050797Y0196067D01*
X0050699Y0195921D01*
X0050316Y0196304D01*
X0043766Y0196304D01*
X0042389Y0194927D01*
X0042389Y0192980D01*
X0043567Y0191802D01*
X0042389Y0190623D01*
X0042389Y0188677D01*
X0042389Y0190350D02*
X0040750Y0190350D01*
X0040750Y0191948D02*
X0043421Y0191948D01*
X0042389Y0193547D02*
X0040750Y0193547D01*
X0040532Y0195145D02*
X0042607Y0195145D01*
X0043972Y0197200D02*
X0046667Y0199895D01*
X0046667Y0203240D01*
X0047467Y0202440D01*
X0047467Y0199895D01*
X0050161Y0197200D01*
X0053972Y0197200D01*
X0056667Y0199895D01*
X0056667Y0203705D01*
X0053972Y0206400D01*
X0051426Y0206400D01*
X0048826Y0209000D01*
X0075307Y0209000D01*
X0072707Y0206400D01*
X0070161Y0206400D01*
X0067467Y0203705D01*
X0067467Y0199895D01*
X0070161Y0197200D01*
X0073972Y0197200D01*
X0076667Y0199895D01*
X0076667Y0202440D01*
X0077467Y0203240D01*
X0077467Y0199895D01*
X0080161Y0197200D01*
X0083972Y0197200D01*
X0086667Y0199895D01*
X0086667Y0203240D01*
X0087467Y0202440D01*
X0087467Y0199895D01*
X0090161Y0197200D01*
X0093972Y0197200D01*
X0096667Y0199895D01*
X0096667Y0203705D01*
X0093972Y0206400D01*
X0091426Y0206400D01*
X0086026Y0211800D01*
X0091426Y0217200D01*
X0093972Y0217200D01*
X0096667Y0219895D01*
X0096667Y0223705D01*
X0093972Y0226400D01*
X0090161Y0226400D01*
X0087467Y0223705D01*
X0087467Y0221160D01*
X0086667Y0220360D01*
X0086667Y0223705D01*
X0083972Y0226400D01*
X0080161Y0226400D01*
X0077467Y0223705D01*
X0077467Y0220360D01*
X0076667Y0221160D01*
X0076667Y0223705D01*
X0073972Y0226400D01*
X0070161Y0226400D01*
X0067467Y0223705D01*
X0067467Y0219895D01*
X0070161Y0217200D01*
X0072707Y0217200D01*
X0075307Y0214600D01*
X0063226Y0214600D01*
X0060626Y0217200D01*
X0063972Y0217200D01*
X0066667Y0219895D01*
X0066667Y0223705D01*
X0063972Y0226400D01*
X0060161Y0226400D01*
X0057467Y0223705D01*
X0057467Y0220360D01*
X0056667Y0221160D01*
X0056667Y0223705D01*
X0053972Y0226400D01*
X0050161Y0226400D01*
X0047467Y0223705D01*
X0047467Y0219895D01*
X0050161Y0217200D01*
X0052707Y0217200D01*
X0055307Y0214600D01*
X0028826Y0214600D01*
X0031426Y0217200D01*
X0033972Y0217200D01*
X0036667Y0219895D01*
X0036667Y0223705D01*
X0033972Y0226400D01*
X0030161Y0226400D01*
X0027467Y0223705D01*
X0027467Y0221160D01*
X0026667Y0220360D01*
X0026667Y0223705D01*
X0023972Y0226400D01*
X0020161Y0226400D01*
X0017467Y0223705D01*
X0017467Y0220360D01*
X0016667Y0221160D01*
X0016667Y0223705D01*
X0013972Y0226400D01*
X0010161Y0226400D01*
X0007467Y0223705D01*
X0007467Y0219895D01*
X0010161Y0217200D01*
X0012707Y0217200D01*
X0018107Y0211800D01*
X0012707Y0206400D01*
X0010161Y0206400D01*
X0007467Y0203705D01*
X0007467Y0199895D01*
X0010161Y0197200D01*
X0013972Y0197200D01*
X0016667Y0199895D01*
X0016667Y0202440D01*
X0017467Y0203240D01*
X0017467Y0199895D01*
X0020161Y0197200D01*
X0023972Y0197200D01*
X0026667Y0199895D01*
X0026667Y0203240D01*
X0027467Y0202440D01*
X0027467Y0199895D01*
X0030161Y0197200D01*
X0033972Y0197200D01*
X0036667Y0199895D01*
X0036667Y0203705D01*
X0033972Y0206400D01*
X0031426Y0206400D01*
X0028826Y0209000D01*
X0040907Y0209000D01*
X0043507Y0206400D01*
X0040161Y0206400D01*
X0037467Y0203705D01*
X0037467Y0199895D01*
X0040161Y0197200D01*
X0043972Y0197200D01*
X0045114Y0198342D02*
X0049019Y0198342D01*
X0047467Y0199941D02*
X0046667Y0199941D01*
X0046667Y0201539D02*
X0047467Y0201539D01*
X0046769Y0203138D02*
X0046667Y0203138D01*
X0049893Y0207934D02*
X0074240Y0207934D01*
X0077364Y0203138D02*
X0077467Y0203138D01*
X0077467Y0201539D02*
X0076667Y0201539D01*
X0076667Y0199941D02*
X0077467Y0199941D01*
X0079019Y0198342D02*
X0075114Y0198342D01*
X0072067Y0201800D02*
X0082067Y0211800D01*
X0092067Y0221800D01*
X0089278Y0225517D02*
X0084855Y0225517D01*
X0086453Y0223919D02*
X0087680Y0223919D01*
X0087467Y0222320D02*
X0086667Y0222320D01*
X0086667Y0220722D02*
X0087028Y0220722D01*
X0090153Y0215926D02*
X0107517Y0215926D01*
X0107517Y0214328D02*
X0088554Y0214328D01*
X0086955Y0212729D02*
X0107517Y0212729D01*
X0107517Y0211131D02*
X0086696Y0211131D01*
X0088294Y0209532D02*
X0107517Y0209532D01*
X0107517Y0207934D02*
X0089893Y0207934D01*
X0086769Y0203138D02*
X0086667Y0203138D01*
X0086667Y0201539D02*
X0087467Y0201539D01*
X0087467Y0199941D02*
X0086667Y0199941D01*
X0086535Y0196304D02*
X0086350Y0196118D01*
X0086093Y0196067D01*
X0085996Y0195921D01*
X0085613Y0196304D01*
X0071389Y0196304D01*
X0070013Y0194927D01*
X0070013Y0192980D01*
X0071191Y0191802D01*
X0070013Y0190623D01*
X0070013Y0188677D01*
X0071389Y0187300D01*
X0076205Y0187300D01*
X0076816Y0187911D01*
X0077428Y0187300D01*
X0079374Y0187300D01*
X0079936Y0187861D01*
X0080497Y0187300D01*
X0083928Y0187300D01*
X0084146Y0187155D01*
X0084872Y0187300D01*
X0085613Y0187300D01*
X0085798Y0187485D01*
X0086055Y0187537D01*
X0086153Y0187683D01*
X0086535Y0187300D01*
X0088482Y0187300D01*
X0088735Y0187553D01*
X0088987Y0187300D01*
X0092369Y0187300D01*
X0092980Y0187911D01*
X0093591Y0187300D01*
X0096973Y0187300D01*
X0098349Y0188677D01*
X0099067Y0189394D01*
X0099067Y0194210D01*
X0097690Y0195586D01*
X0096973Y0196304D01*
X0095026Y0196304D01*
X0093591Y0196304D01*
X0092980Y0195692D01*
X0092369Y0196304D01*
X0088987Y0196304D01*
X0088735Y0196051D01*
X0088482Y0196304D01*
X0088220Y0196304D01*
X0088002Y0196449D01*
X0087276Y0196304D01*
X0086535Y0196304D01*
X0085114Y0198342D02*
X0089019Y0198342D01*
X0092067Y0201800D02*
X0082067Y0211800D01*
X0072067Y0221800D01*
X0074855Y0225517D02*
X0079278Y0225517D01*
X0077680Y0223919D02*
X0076453Y0223919D01*
X0076667Y0222320D02*
X0077467Y0222320D01*
X0077467Y0220722D02*
X0077105Y0220722D01*
X0073981Y0215926D02*
X0061900Y0215926D01*
X0064297Y0217525D02*
X0069837Y0217525D01*
X0068238Y0219123D02*
X0065895Y0219123D01*
X0066667Y0220722D02*
X0067467Y0220722D01*
X0067467Y0222320D02*
X0066667Y0222320D01*
X0066453Y0223919D02*
X0067680Y0223919D01*
X0069278Y0225517D02*
X0064855Y0225517D01*
X0059278Y0225517D02*
X0054855Y0225517D01*
X0056453Y0223919D02*
X0057680Y0223919D01*
X0057467Y0222320D02*
X0056667Y0222320D01*
X0057105Y0220722D02*
X0057467Y0220722D01*
X0053981Y0215926D02*
X0030153Y0215926D01*
X0032067Y0221800D02*
X0022067Y0211800D01*
X0032067Y0201800D01*
X0035114Y0198342D02*
X0039019Y0198342D01*
X0037467Y0199941D02*
X0036667Y0199941D01*
X0036667Y0201539D02*
X0037467Y0201539D01*
X0037467Y0203138D02*
X0036667Y0203138D01*
X0035636Y0204737D02*
X0038498Y0204737D01*
X0040096Y0206335D02*
X0034037Y0206335D01*
X0029893Y0207934D02*
X0041973Y0207934D01*
X0042067Y0211800D02*
X0052067Y0201800D01*
X0054037Y0206335D02*
X0060096Y0206335D01*
X0060161Y0206400D02*
X0057467Y0203705D01*
X0057467Y0199895D01*
X0060161Y0197200D01*
X0063972Y0197200D01*
X0066667Y0199895D01*
X0066667Y0203705D01*
X0063972Y0206400D01*
X0060161Y0206400D01*
X0058498Y0204737D02*
X0055636Y0204737D01*
X0056667Y0203138D02*
X0057467Y0203138D01*
X0057467Y0201539D02*
X0056667Y0201539D01*
X0056667Y0199941D02*
X0057467Y0199941D01*
X0059019Y0198342D02*
X0055114Y0198342D01*
X0058230Y0195145D02*
X0059288Y0195145D01*
X0060161Y0186400D02*
X0057467Y0183705D01*
X0057467Y0179895D01*
X0060161Y0177200D01*
X0063972Y0177200D01*
X0066667Y0179895D01*
X0066667Y0183705D01*
X0063972Y0186400D01*
X0060161Y0186400D01*
X0059316Y0185554D02*
X0054818Y0185554D01*
X0056416Y0183956D02*
X0057717Y0183956D01*
X0057467Y0182357D02*
X0056667Y0182357D01*
X0056667Y0180759D02*
X0057467Y0180759D01*
X0058201Y0179160D02*
X0055932Y0179160D01*
X0054334Y0177562D02*
X0059799Y0177562D01*
X0062067Y0171800D02*
X0052067Y0161800D01*
X0048982Y0158380D02*
X0045152Y0158380D01*
X0046667Y0159978D02*
X0047467Y0159978D01*
X0047467Y0161577D02*
X0046667Y0161577D01*
X0046667Y0163175D02*
X0047467Y0163175D01*
X0048535Y0164774D02*
X0045598Y0164774D01*
X0044000Y0166372D02*
X0050134Y0166372D01*
X0050190Y0175963D02*
X0073944Y0175963D01*
X0069799Y0177562D02*
X0064334Y0177562D01*
X0065932Y0179160D02*
X0068201Y0179160D01*
X0067467Y0180759D02*
X0066667Y0180759D01*
X0066667Y0182357D02*
X0067467Y0182357D01*
X0067717Y0183956D02*
X0066416Y0183956D01*
X0064818Y0185554D02*
X0069316Y0185554D01*
X0070013Y0188751D02*
X0067731Y0188751D01*
X0068374Y0190350D02*
X0070013Y0190350D01*
X0071044Y0191948D02*
X0068374Y0191948D01*
X0068374Y0193547D02*
X0070013Y0193547D01*
X0070231Y0195145D02*
X0067438Y0195145D01*
X0069019Y0198342D02*
X0065114Y0198342D01*
X0066667Y0199941D02*
X0067467Y0199941D01*
X0067467Y0201539D02*
X0066667Y0201539D01*
X0066667Y0203138D02*
X0067467Y0203138D01*
X0068498Y0204737D02*
X0065636Y0204737D01*
X0064037Y0206335D02*
X0070096Y0206335D01*
X0062067Y0211800D02*
X0052067Y0221800D01*
X0049278Y0225517D02*
X0044855Y0225517D01*
X0043972Y0226400D02*
X0046667Y0223705D01*
X0046667Y0219895D01*
X0043972Y0217200D01*
X0040161Y0217200D01*
X0037467Y0219895D01*
X0037467Y0223705D01*
X0040161Y0226400D01*
X0043972Y0226400D01*
X0046453Y0223919D02*
X0047680Y0223919D01*
X0047467Y0222320D02*
X0046667Y0222320D01*
X0046667Y0220722D02*
X0047467Y0220722D01*
X0048238Y0219123D02*
X0045895Y0219123D01*
X0044297Y0217525D02*
X0049837Y0217525D01*
X0042067Y0211800D02*
X0062067Y0211800D01*
X0082067Y0211800D01*
X0094037Y0206335D02*
X0100096Y0206335D01*
X0100161Y0206400D02*
X0097467Y0203705D01*
X0097467Y0199895D01*
X0100161Y0197200D01*
X0103972Y0197200D01*
X0106667Y0199895D01*
X0106667Y0203705D01*
X0103972Y0206400D01*
X0100161Y0206400D01*
X0098498Y0204737D02*
X0095636Y0204737D01*
X0096667Y0203138D02*
X0097467Y0203138D01*
X0097467Y0201539D02*
X0096667Y0201539D01*
X0096667Y0199941D02*
X0097467Y0199941D01*
X0099019Y0198342D02*
X0095114Y0198342D01*
X0098131Y0195145D02*
X0107517Y0195145D01*
X0107517Y0193547D02*
X0099067Y0193547D01*
X0099067Y0191948D02*
X0107517Y0191948D01*
X0107517Y0190350D02*
X0099067Y0190350D01*
X0098424Y0188751D02*
X0107517Y0188751D01*
X0107517Y0187153D02*
X0006567Y0187153D01*
X0006567Y0188751D02*
X0012464Y0188751D01*
X0012464Y0188677D02*
X0013840Y0187300D01*
X0018656Y0187300D01*
X0020033Y0188677D01*
X0020033Y0190623D01*
X0019571Y0191085D01*
X0020033Y0191546D01*
X0020033Y0193492D01*
X0018598Y0194927D01*
X0018145Y0195380D01*
X0017221Y0196304D01*
X0015275Y0196304D01*
X0014576Y0195605D01*
X0013898Y0194927D01*
X0013898Y0192000D01*
X0013840Y0192000D01*
X0012464Y0190623D01*
X0012464Y0188677D01*
X0012464Y0190350D02*
X0006567Y0190350D01*
X0006567Y0191948D02*
X0013789Y0191948D01*
X0013898Y0193547D02*
X0006567Y0193547D01*
X0006567Y0195145D02*
X0014116Y0195145D01*
X0015114Y0198342D02*
X0019019Y0198342D01*
X0017467Y0199941D02*
X0016667Y0199941D01*
X0016667Y0201539D02*
X0017467Y0201539D01*
X0017467Y0203138D02*
X0017364Y0203138D01*
X0015839Y0209532D02*
X0006567Y0209532D01*
X0006567Y0207934D02*
X0014240Y0207934D01*
X0015579Y0214328D02*
X0006567Y0214328D01*
X0006567Y0215926D02*
X0013981Y0215926D01*
X0012067Y0221800D02*
X0022067Y0211800D01*
X0012067Y0201800D01*
X0010096Y0206335D02*
X0006567Y0206335D01*
X0006567Y0204737D02*
X0008498Y0204737D01*
X0007467Y0203138D02*
X0006567Y0203138D01*
X0006567Y0201539D02*
X0007467Y0201539D01*
X0007467Y0199941D02*
X0006567Y0199941D01*
X0006567Y0198342D02*
X0009019Y0198342D01*
X0006567Y0196744D02*
X0107517Y0196744D01*
X0107517Y0198342D02*
X0105114Y0198342D01*
X0106667Y0199941D02*
X0107517Y0199941D01*
X0107517Y0201539D02*
X0106667Y0201539D01*
X0106667Y0203138D02*
X0107517Y0203138D01*
X0107517Y0204737D02*
X0105636Y0204737D01*
X0104037Y0206335D02*
X0107517Y0206335D01*
X0107517Y0217525D02*
X0104297Y0217525D01*
X0103972Y0217200D02*
X0106667Y0219895D01*
X0106667Y0223705D01*
X0103972Y0226400D01*
X0100161Y0226400D01*
X0097467Y0223705D01*
X0097467Y0219895D01*
X0100161Y0217200D01*
X0103972Y0217200D01*
X0105895Y0219123D02*
X0107517Y0219123D01*
X0107517Y0220722D02*
X0106667Y0220722D01*
X0106667Y0222320D02*
X0107517Y0222320D01*
X0107517Y0223919D02*
X0106453Y0223919D01*
X0107517Y0225517D02*
X0104855Y0225517D01*
X0107517Y0227116D02*
X0006567Y0227116D01*
X0006567Y0228714D02*
X0107517Y0228714D01*
X0107266Y0230313D02*
X0006818Y0230313D01*
X0008277Y0231911D02*
X0105807Y0231911D01*
X0099278Y0225517D02*
X0094855Y0225517D01*
X0096453Y0223919D02*
X0097680Y0223919D01*
X0097467Y0222320D02*
X0096667Y0222320D01*
X0096667Y0220722D02*
X0097467Y0220722D01*
X0098238Y0219123D02*
X0095895Y0219123D01*
X0094297Y0217525D02*
X0099837Y0217525D01*
X0100161Y0186400D02*
X0097467Y0183705D01*
X0097467Y0179895D01*
X0100161Y0177200D01*
X0103972Y0177200D01*
X0106667Y0179895D01*
X0106667Y0183705D01*
X0103972Y0186400D01*
X0100161Y0186400D01*
X0099316Y0185554D02*
X0094818Y0185554D01*
X0096416Y0183956D02*
X0097717Y0183956D01*
X0097467Y0182357D02*
X0096667Y0182357D01*
X0096667Y0180759D02*
X0097467Y0180759D01*
X0098201Y0179160D02*
X0095932Y0179160D01*
X0094334Y0177562D02*
X0099799Y0177562D01*
X0104334Y0177562D02*
X0107517Y0177562D01*
X0107517Y0179160D02*
X0105932Y0179160D01*
X0106667Y0180759D02*
X0107517Y0180759D01*
X0107517Y0182357D02*
X0106667Y0182357D01*
X0106416Y0183956D02*
X0107517Y0183956D01*
X0107517Y0185554D02*
X0104818Y0185554D01*
X0107517Y0175963D02*
X0090190Y0175963D01*
X0088591Y0174365D02*
X0107517Y0174365D01*
X0107517Y0172766D02*
X0086993Y0172766D01*
X0086659Y0171168D02*
X0107517Y0171168D01*
X0107517Y0169569D02*
X0088257Y0169569D01*
X0089856Y0167971D02*
X0107517Y0167971D01*
X0107517Y0166372D02*
X0104000Y0166372D01*
X0103972Y0166400D02*
X0100161Y0166400D01*
X0097467Y0163705D01*
X0097467Y0159895D01*
X0100161Y0157200D01*
X0103972Y0157200D01*
X0106667Y0159895D01*
X0106667Y0163705D01*
X0103972Y0166400D01*
X0105598Y0164774D02*
X0107517Y0164774D01*
X0107517Y0163175D02*
X0106667Y0163175D01*
X0106667Y0161577D02*
X0107517Y0161577D01*
X0107517Y0159978D02*
X0106667Y0159978D01*
X0107517Y0158380D02*
X0105152Y0158380D01*
X0107517Y0156781D02*
X0006567Y0156781D01*
X0006567Y0155183D02*
X0107517Y0155183D01*
X0107517Y0153584D02*
X0006567Y0153584D01*
X0006567Y0151986D02*
X0107517Y0151986D01*
X0107517Y0150387D02*
X0006567Y0150387D01*
X0006567Y0148789D02*
X0107517Y0148789D01*
X0100134Y0166372D02*
X0094000Y0166372D01*
X0095598Y0164774D02*
X0098535Y0164774D01*
X0097467Y0163175D02*
X0096667Y0163175D01*
X0096667Y0161577D02*
X0097467Y0161577D01*
X0097467Y0159978D02*
X0096667Y0159978D01*
X0095152Y0158380D02*
X0098982Y0158380D01*
X0092067Y0161800D02*
X0082067Y0171800D01*
X0072067Y0181800D01*
X0074818Y0185554D02*
X0079316Y0185554D01*
X0077717Y0183956D02*
X0076416Y0183956D01*
X0076667Y0182357D02*
X0077467Y0182357D01*
X0077467Y0180759D02*
X0077068Y0180759D01*
X0082067Y0171800D02*
X0072067Y0161800D01*
X0070134Y0166372D02*
X0064000Y0166372D01*
X0065598Y0164774D02*
X0068535Y0164774D01*
X0067467Y0163175D02*
X0066667Y0163175D01*
X0066667Y0161577D02*
X0067467Y0161577D01*
X0067467Y0159978D02*
X0066667Y0159978D01*
X0065152Y0158380D02*
X0068982Y0158380D01*
X0074278Y0167971D02*
X0062197Y0167971D01*
X0062067Y0171800D02*
X0082067Y0171800D01*
X0092067Y0181800D01*
X0089316Y0185554D02*
X0084818Y0185554D01*
X0086416Y0183956D02*
X0087717Y0183956D01*
X0087467Y0182357D02*
X0086667Y0182357D01*
X0086667Y0180759D02*
X0087066Y0180759D01*
X0086732Y0163175D02*
X0086667Y0163175D01*
X0086667Y0161577D02*
X0087467Y0161577D01*
X0087467Y0159978D02*
X0086667Y0159978D01*
X0085152Y0158380D02*
X0088982Y0158380D01*
X0089353Y0145592D02*
X0084780Y0145592D01*
X0086379Y0143993D02*
X0087754Y0143993D01*
X0087467Y0142395D02*
X0086667Y0142395D01*
X0086667Y0140796D02*
X0087103Y0140796D01*
X0082067Y0131800D02*
X0092067Y0121800D01*
X0078982Y0158380D02*
X0075152Y0158380D01*
X0076667Y0159978D02*
X0077467Y0159978D01*
X0077467Y0161577D02*
X0076667Y0161577D01*
X0077402Y0163175D02*
X0077467Y0163175D01*
X0062067Y0171800D02*
X0042067Y0171800D01*
X0052067Y0181800D01*
X0049316Y0185554D02*
X0044818Y0185554D01*
X0046416Y0183956D02*
X0047717Y0183956D01*
X0047467Y0182357D02*
X0046667Y0182357D01*
X0046667Y0180759D02*
X0047066Y0180759D01*
X0042270Y0175963D02*
X0030190Y0175963D01*
X0027066Y0180759D02*
X0026667Y0180759D01*
X0026667Y0182357D02*
X0027467Y0182357D01*
X0027717Y0183956D02*
X0026416Y0183956D01*
X0024818Y0185554D02*
X0029316Y0185554D01*
X0023973Y0193547D02*
X0019978Y0193547D01*
X0020033Y0191948D02*
X0022129Y0191948D01*
X0021521Y0190350D02*
X0020033Y0190350D01*
X0020033Y0188751D02*
X0021521Y0188751D01*
X0019316Y0185554D02*
X0014818Y0185554D01*
X0016416Y0183956D02*
X0017717Y0183956D01*
X0017467Y0182357D02*
X0016667Y0182357D01*
X0017068Y0180759D02*
X0017467Y0180759D01*
X0015542Y0174365D02*
X0006567Y0174365D01*
X0006567Y0175963D02*
X0013944Y0175963D01*
X0015876Y0169569D02*
X0006567Y0169569D01*
X0006567Y0167971D02*
X0014278Y0167971D01*
X0017475Y0171168D02*
X0006567Y0171168D01*
X0006567Y0172766D02*
X0017141Y0172766D01*
X0022067Y0171800D02*
X0012067Y0161800D01*
X0010134Y0166372D02*
X0006567Y0166372D01*
X0006567Y0164774D02*
X0008535Y0164774D01*
X0007467Y0163175D02*
X0006567Y0163175D01*
X0006567Y0161577D02*
X0007467Y0161577D01*
X0007467Y0159978D02*
X0006567Y0159978D01*
X0006567Y0158380D02*
X0008982Y0158380D01*
X0014780Y0145592D02*
X0019353Y0145592D01*
X0017754Y0143993D02*
X0016379Y0143993D01*
X0016667Y0142395D02*
X0017467Y0142395D01*
X0017467Y0140796D02*
X0017030Y0140796D01*
X0015152Y0158380D02*
X0018982Y0158380D01*
X0017467Y0159978D02*
X0016667Y0159978D01*
X0016667Y0161577D02*
X0017467Y0161577D01*
X0017467Y0163175D02*
X0017402Y0163175D01*
X0022067Y0171800D02*
X0042067Y0171800D01*
X0039799Y0177562D02*
X0034334Y0177562D01*
X0035932Y0179160D02*
X0038201Y0179160D01*
X0037467Y0180759D02*
X0036667Y0180759D01*
X0036667Y0182357D02*
X0037467Y0182357D01*
X0037717Y0183956D02*
X0036416Y0183956D01*
X0029019Y0198342D02*
X0025114Y0198342D01*
X0026667Y0199941D02*
X0027467Y0199941D01*
X0027467Y0201539D02*
X0026667Y0201539D01*
X0026667Y0203138D02*
X0026769Y0203138D01*
X0024192Y0195145D02*
X0018380Y0195145D01*
X0018598Y0194927D02*
X0018598Y0194927D01*
X0012067Y0181800D02*
X0022067Y0171800D01*
X0026667Y0163175D02*
X0026732Y0163175D01*
X0026667Y0161577D02*
X0027467Y0161577D01*
X0027467Y0159978D02*
X0026667Y0159978D01*
X0025152Y0158380D02*
X0028982Y0158380D01*
X0034780Y0145592D02*
X0039353Y0145592D01*
X0037754Y0143993D02*
X0036379Y0143993D01*
X0036667Y0142395D02*
X0037467Y0142395D01*
X0037467Y0140796D02*
X0036667Y0140796D01*
X0035970Y0139198D02*
X0038164Y0139198D01*
X0039762Y0137599D02*
X0034371Y0137599D01*
X0029390Y0105629D02*
X0024743Y0105629D01*
X0026342Y0104030D02*
X0027792Y0104030D01*
X0027467Y0102432D02*
X0026667Y0102432D01*
X0026667Y0100833D02*
X0027140Y0100833D01*
X0022067Y0091800D02*
X0012067Y0081800D01*
X0012754Y0086447D02*
X0006567Y0086447D01*
X0006567Y0088045D02*
X0014352Y0088045D01*
X0015951Y0089644D02*
X0006567Y0089644D01*
X0006567Y0091242D02*
X0017549Y0091242D01*
X0017066Y0092841D02*
X0006567Y0092841D01*
X0006567Y0094439D02*
X0015468Y0094439D01*
X0016667Y0081651D02*
X0017467Y0081651D01*
X0017467Y0080053D02*
X0016667Y0080053D01*
X0015226Y0078454D02*
X0018907Y0078454D01*
X0025226Y0078454D02*
X0028907Y0078454D01*
X0027467Y0080053D02*
X0026667Y0080053D01*
X0026667Y0081651D02*
X0027467Y0081651D01*
X0045226Y0078454D02*
X0048907Y0078454D01*
X0047467Y0080053D02*
X0046667Y0080053D01*
X0046667Y0081651D02*
X0047467Y0081651D01*
X0047467Y0083250D02*
X0046667Y0083250D01*
X0045524Y0084848D02*
X0048609Y0084848D01*
X0054408Y0097636D02*
X0059725Y0097636D01*
X0060161Y0097200D02*
X0063972Y0097200D01*
X0066667Y0099895D01*
X0066667Y0103705D01*
X0063972Y0106400D01*
X0060161Y0106400D01*
X0057467Y0103705D01*
X0057467Y0099895D01*
X0060161Y0097200D01*
X0058127Y0099235D02*
X0056007Y0099235D01*
X0056667Y0100833D02*
X0057467Y0100833D01*
X0057467Y0102432D02*
X0056667Y0102432D01*
X0056342Y0104030D02*
X0057792Y0104030D01*
X0059390Y0105629D02*
X0054743Y0105629D01*
X0055189Y0118417D02*
X0058944Y0118417D01*
X0057467Y0120015D02*
X0056667Y0120015D01*
X0056667Y0121614D02*
X0057467Y0121614D01*
X0057467Y0123212D02*
X0056667Y0123212D01*
X0055561Y0124811D02*
X0058572Y0124811D01*
X0064743Y0105629D02*
X0069390Y0105629D01*
X0067792Y0104030D02*
X0066342Y0104030D01*
X0066667Y0102432D02*
X0067467Y0102432D01*
X0067467Y0100833D02*
X0066667Y0100833D01*
X0066007Y0099235D02*
X0068127Y0099235D01*
X0069725Y0097636D02*
X0064408Y0097636D01*
X0065524Y0084848D02*
X0068609Y0084848D01*
X0067467Y0083250D02*
X0066667Y0083250D01*
X0066667Y0081651D02*
X0067467Y0081651D01*
X0067467Y0080053D02*
X0066667Y0080053D01*
X0065226Y0078454D02*
X0068907Y0078454D01*
X0069570Y0032097D02*
X0064563Y0032097D01*
X0065510Y0025703D02*
X0063596Y0025703D01*
X0067036Y0019309D02*
X0084658Y0019309D01*
X0086256Y0017711D02*
X0066405Y0017711D01*
X0068634Y0020908D02*
X0083059Y0020908D01*
X0082669Y0027302D02*
X0040525Y0027302D01*
X0039867Y0028900D02*
X0084267Y0028900D01*
X0085866Y0030499D02*
X0039867Y0030499D01*
X0044563Y0032097D02*
X0049570Y0032097D01*
X0054563Y0032097D02*
X0059570Y0032097D01*
X0074563Y0032097D02*
X0079570Y0032097D01*
X0084563Y0032097D02*
X0089570Y0032097D01*
X0106115Y0033696D02*
X0107517Y0033696D01*
X0107517Y0035294D02*
X0106940Y0035294D01*
X0107371Y0016112D02*
X0107517Y0016112D01*
X0042067Y0211800D02*
X0022067Y0211800D01*
X0017437Y0211131D02*
X0006567Y0211131D01*
X0006567Y0212729D02*
X0017178Y0212729D01*
X0017105Y0220722D02*
X0017467Y0220722D01*
X0017467Y0222320D02*
X0016667Y0222320D01*
X0016453Y0223919D02*
X0017680Y0223919D01*
X0019278Y0225517D02*
X0014855Y0225517D01*
X0009278Y0225517D02*
X0006567Y0225517D01*
X0006567Y0223919D02*
X0007680Y0223919D01*
X0007467Y0222320D02*
X0006567Y0222320D01*
X0006567Y0220722D02*
X0007467Y0220722D01*
X0008238Y0219123D02*
X0006567Y0219123D01*
X0006567Y0217525D02*
X0009837Y0217525D01*
X0024855Y0225517D02*
X0029278Y0225517D01*
X0027680Y0223919D02*
X0026453Y0223919D01*
X0026667Y0222320D02*
X0027467Y0222320D01*
X0027028Y0220722D02*
X0026667Y0220722D01*
X0034297Y0217525D02*
X0039837Y0217525D01*
X0038238Y0219123D02*
X0035895Y0219123D01*
X0036667Y0220722D02*
X0037467Y0220722D01*
X0037467Y0222320D02*
X0036667Y0222320D01*
X0036453Y0223919D02*
X0037680Y0223919D01*
X0039278Y0225517D02*
X0034855Y0225517D01*
X0009316Y0185554D02*
X0006567Y0185554D01*
X0006567Y0183956D02*
X0007717Y0183956D01*
X0007467Y0182357D02*
X0006567Y0182357D01*
X0006567Y0180759D02*
X0007467Y0180759D01*
X0008201Y0179160D02*
X0006567Y0179160D01*
X0006567Y0177562D02*
X0009799Y0177562D01*
X0008609Y0084848D02*
X0006567Y0084848D01*
X0006567Y0083250D02*
X0007467Y0083250D01*
X0007467Y0081651D02*
X0006567Y0081651D01*
X0006567Y0080053D02*
X0007467Y0080053D01*
X0006567Y0078454D02*
X0008907Y0078454D01*
M02*
